<?xml version="1.0" encoding="utf-8"?>
<!-- Generator: Adobe Illustrator 19.2.1, SVG Export Plug-In . SVG Version: 6.00 Build 0)  -->
<svg version="1.1" id="Layer_1" xmlns="http://www.w3.org/2000/svg" xmlns:xlink="http://www.w3.org/1999/xlink" x="0px" y="0px"
	 viewBox="0 0 222 126" style="enable-background:new 0 0 222 126;" xml:space="preserve">
<style type="text/css">
	.st0{fill:#00A79D;}
	.st1{fill:none;stroke:#C5DFF4;stroke-width:2.2667;stroke-miterlimit:10;}
	.st2{fill:#FFFFFF;}
	.st3{font-family:'MarkerFelt-Wide';}
	.st4{font-size:27.0179px;}
</style>
<g>
	<g>
		<path class="st0" d="M71,84.4c0.1-0.9-0.4-1.8,0.4-2.2c2.6-0.7,4.5,2.4,7.1,1.7l0.3-1.4c1.9,0.7,4,1.6,6,2.5c3.9,0,7.8,0,11.7-0.2
			c-0.1-0.5-0.1-1,0.3-1.2c1.6-0.3,3.8,0.4,6.1,0.7c0.3-0.1,0.7-0.1,1-0.2c0.3-0.3,0.4-0.8,0.5-1.1c1,0.1,1.9,0.3,2.8,0.6
			c11.5-1.9,23.3-4.2,36.2-6.3c2.8-1,5.6-2.1,8.2-2.4c3.8-0.2,8.5,1.3,12.2,1.9c0.1-5.1,9.4-6.5,8.3-11.8c2.5,0.4,6.1,1,6.5-0.4
			c1.2-4.2,3.7-8.9,10.7-10.6c2.7-0.3,6.4,2,7.4,1.3c1.6-1.2-2.9-3.4-1.3-4.6c-19.1-4.1-38-4.3-57.5-6.2c-3.4,0.8-16.4,0.4-29.9-0.2
			c-13.5-0.6-27.6-1.5-33.3-2.3l-1.1,0c-6.3-0.6-14-0.6-19.4,1.1c-2.5,1.1-5,2.4-7.5,3.8c1.1,0.9,2.1,1.8,3,2.6
			c-2.5-0.2-5-0.4-6,0.5c-5.4,2-2.5,4.6-0.5,8.2c1.4,1.6-0.6,3.8,1.6,5.4c-1.6-0.1-2.5-0.2-4.1-0.3c-0.2,1.4,5.1-0.6,3.9,1.8
			c-1.6-0.6-3.4,0.2-5,0.1c0.5,2,5.7,0.9,5.4,2.8c-0.9,0.4-4.5-2.8-4.9-0.4c-0.1,0.5,1.6,0.6,2.4,0.7c-5.1,0.6-7.9,2.8-3.4,5.5
			c-1.6-0.1-3.8-1.2-5.5-0.9l0,0c0.8,0.1,2.3,0.7,3.1,0.7l-2.9-0.2c0.1,0.3,0.3,0.7,0.5,1c0.7,0.3,1.4,0.6,2.2,0.6l-1.9-0.2
			c0.5,0.8,1,1.6,1.6,2.3c2.2,1.6,4.3,4,5.5,4.1C51.3,82.4,61.2,83.7,71,84.4z"/>
	</g>
</g>
<g>
	<g>
		<path class="st1" d="M-193,121"/>
	</g>
</g>
<text transform="matrix(1.0964 0 0 1 46.333 70.5104)" class="st2 st3 st4">Catalog</text>
</svg>
