<svg id="Layer_1" data-name="Layer 1" xmlns="http://www.w3.org/2000/svg" viewBox="0 0 95.33 78.18"><defs><style>.cls-1{fill:#ef3b8a;}.cls-2{fill:#fff;}</style></defs><title>MenuButton</title><path class="cls-1" d="M78,26.47h2.09C68.22,22.08,55.66,23.84,44.5,17.7L41.7,14.19c-5.58-2.63-12.56-1.75-18.14,0-2.79.88-4.89,10.52-4.89,10.52-0.7,1.75-1.4,5.26-.7,7,1.4,0.87,4.88.87,4.88,4.38,0,0.87-.7.87-1.39,0.87,0,3.5-2.09,10.52-2.79,10.52-0.7,1.76-4.89,7-5.58,8.76C11,58.89,17.28,72,20.07,74.67c1.4,1.75,0,4.38,0,7,1.4-.88,2.09,1.75,3.49.87,0,0.88,4.18,1.75,6.28,1.75,0,0,.7-0.88,2.79-0.88,0.7,0,.7-0.88.7-1.75v1.75c0.7-1.75,2.09,0,2.79-.88v1.75c1.39-1.75,2.79,0,4.18-.88v1.75c0.7,0,1.39,0,1.39.87v1.76c0.7,0.88,2.09-.88,2.09.88V86.94a17.08,17.08,0,0,1,7,1.75c5.58,3.51,12.56,1.75,18.84,0,0.7,0,1.4-1.75.7-3.51h2.09c1.39,0,.7-2.63,2.09-2.63,11.17-4.38,22.33,0,33.5-2.63-2.79-.87-4.89-2.63-7.68-1.75,0-.88,0-2.63-0.7-2.63-4.19-.88-9.07.87-11.17-2.63-0.7-.87-1.39-3.5-3.49-3.5h2.09V66.78C84.27,65.91,80.78,65,78,64.15V61.53H76.6c-1.4-6.14,6.28-5.26,9.77-6.14v-3.5H85V50.13H94c0-.87,0-1.75-0.7-1.75,2.79,0,6.28.88,9.07-.88,0.7-.88,0-3.51-2.09-4.38H94.74V41.37c1.4,0,3.49.87,4.89,0,0.7-.88-1.4-2.63-0.7-3.51A2.26,2.26,0,0,0,101,37c-2.1,0-4.89.88-7,0a5,5,0,0,1-1.4-3.5c-3.49.88-6.28-1.75-8.37-6.14C83.58,25.59,80.08,26.47,78,26.47Z" transform="translate(-12.67 -12.53)"/><rect class="cls-2" x="13.39" y="17.76" width="6.62" height="6.62"/><rect class="cls-2" x="13.33" y="30.08" width="6.62" height="6.62"/><rect class="cls-2" x="13.35" y="42.52" width="6.62" height="6.62"/><rect class="cls-2" x="13.31" y="54.6" width="6.62" height="6.62"/><rect class="cls-2" x="23.02" y="17.85" width="38.62" height="6.62"/><rect class="cls-2" x="23.02" y="30.15" width="38.62" height="6.62"/><rect class="cls-2" x="23.02" y="42.57" width="38.62" height="6.62"/><rect class="cls-2" x="23.02" y="54.77" width="38.62" height="6.62"/></svg>