<?xml version="1.0" encoding="utf-8"?>
<!-- Generator: Adobe Illustrator 19.2.1, SVG Export Plug-In . SVG Version: 6.00 Build 0)  -->
<svg version="1.1" id="Layer_1" xmlns="http://www.w3.org/2000/svg" xmlns:xlink="http://www.w3.org/1999/xlink" x="0px" y="0px"
	 viewBox="0 0 222 126" style="enable-background:new 0 0 222 126;" xml:space="preserve">
<style type="text/css">
	.st0{fill:#7F3F98;}
	.st1{fill:none;stroke:#C5DFF4;stroke-width:2.2667;stroke-miterlimit:10;}
	.st2{fill:#FFFFFF;}
	.st3{font-family:'MarkerFelt-Wide';}
	.st4{font-size:27.0179px;}
</style>
<g>
	<g>
		<path class="st0" d="M72.2,80.4c0.1-0.8-0.4-1.6,0.4-2c2.7-0.6,4.6,2.2,7.3,1.6l0.3-1.3c2,0.7,4.1,1.5,6.2,2.3c4,0.1,8,0,12-0.2
			c-0.1-0.5-0.1-0.9,0.3-1.1c1.7-0.2,3.9,0.4,6.3,0.7c0.4,0,0.7-0.1,1.1-0.1c0.3-0.3,0.4-0.7,0.5-1c1.1,0.1,2,0.3,2.9,0.5
			c11.8-1.7,23.9-3.7,37.1-5.5c2.9-0.9,5.7-1.9,8.4-2.2c3.9-0.1,8.8,1.3,12.6,1.8c0-4.6,9.6-5.9,8.4-10.7c2.5,0.4,6.3,1,6.7-0.3
			c1.2-3.8,3.8-8.1,11-9.6c2.8-0.2,6.6,1.9,7.6,1.2c1.7-1.1-3-3.1-1.3-4.2c-19.7-3.8-39.1-4.2-59.2-6c-3.5,0.7-16.8,0.3-30.7-0.4
			c-13.9-0.7-28.4-1.5-34.3-2.3l-1.1,0c-6.5-0.6-14.3-0.6-19.9,0.9c-2.6,1-5.1,2.2-7.7,3.4c1.2,0.8,2.2,1.6,3.1,2.4
			c-2.6-0.2-5.1-0.4-6.2,0.4c-5.5,1.8-2.5,4.2-0.5,7.4c1.5,1.4-0.6,3.5,1.7,5c-1.7-0.1-2.5-0.2-4.2-0.3c-0.2,1.3,5.2-0.5,4,1.6
			c-1.6-0.6-3.5,0.2-5.2,0c0.5,1.8,5.8,0.9,5.5,2.6c-0.9,0.4-4.7-2.5-5.1-0.4c-0.1,0.4,1.6,0.6,2.5,0.6c-5.2,0.5-8.1,2.5-3.5,5
			c-1.6-0.1-3.9-1.1-5.7-0.9l0,0c0.9,0.1,2.3,0.6,3.1,0.7l-3-0.2c0.1,0.3,0.3,0.6,0.5,0.9c0.7,0.3,1.5,0.5,2.2,0.6l-2-0.1
			c0.5,0.7,1,1.4,1.6,2.1c2.3,1.5,4.5,3.6,5.7,3.7C52,78.6,62.2,79.7,72.2,80.4z"/>
	</g>
</g>
<g>
	<g>
		<path class="st1" d="M-193,121"/>
	</g>
</g>
<text transform="matrix(1.0964 0 0 1 49.6663 69.8437)" class="st2 st3 st4">About Us</text>
</svg>
