<?xml version="1.0" encoding="utf-8"?>
<!-- Generator: Adobe Illustrator 19.2.1, SVG Export Plug-In . SVG Version: 6.00 Build 0)  -->
<svg version="1.1" id="Layer_1" xmlns="http://www.w3.org/2000/svg" xmlns:xlink="http://www.w3.org/1999/xlink" x="0px" y="0px"
	 viewBox="0 0 222 126" style="enable-background:new 0 0 222 126;" xml:space="preserve">
<style type="text/css">
	.st0{fill:#ED1C24;}
	.st1{fill:none;stroke:#C5DFF4;stroke-width:2.2667;stroke-miterlimit:10;}
	.st2{fill:#FFFFFF;}
	.st3{font-family:'MarkerFelt-Wide';}
	.st4{font-size:27.0179px;}
</style>
<g>
	<g>
		<path class="st0" d="M70.7,80.4c0.1-0.8-0.4-1.6,0.4-2c2.6-0.6,4.5,2.2,7,1.6l0.3-1.3c1.9,0.7,3.9,1.5,6,2.3
			c3.8,0.1,7.7,0,11.5-0.2c-0.1-0.5-0.1-0.9,0.3-1.1c1.6-0.2,3.8,0.4,6,0.7c0.3-0.1,0.7-0.1,1-0.1c0.3-0.3,0.4-0.7,0.5-1
			c1,0.1,1.9,0.3,2.8,0.5c11.4-1.7,23-3.8,35.7-5.5c2.7-0.9,5.5-1.9,8.1-2.2c3.8-0.1,8.4,1.2,12,1.8c0-4.6,9.2-5.9,8.1-10.7
			c2.4,0.4,6.1,0.9,6.4-0.3c1.1-3.8,3.7-8.1,10.5-9.6c2.6-0.2,6.3,1.9,7.3,1.2c1.6-1.1-2.9-3.1-1.3-4.2c-18.9-3.8-37.5-4.1-56.8-5.9
			c-3.4,0.7-16.2,0.3-29.5-0.3c-13.3-0.6-27.2-1.5-32.9-2.2l-1,0c-6.2-0.6-13.8-0.6-19.1,0.9c-2.5,1-4.9,2.2-7.4,3.4
			c1.1,0.8,2.1,1.6,3,2.4c-2.5-0.2-4.9-0.4-5.9,0.4c-5.3,1.8-2.4,4.2-0.5,7.4c1.4,1.4-0.6,3.5,1.6,4.9c-1.6-0.1-2.4-0.2-4.1-0.3
			c-0.2,1.3,5-0.5,3.8,1.6c-1.5-0.6-3.3,0.2-4.9,0.1c0.5,1.8,5.6,0.9,5.3,2.6c-0.9,0.4-4.5-2.5-4.9-0.4c-0.1,0.4,1.5,0.6,2.4,0.6
			c-5,0.5-7.8,2.5-3.3,5c-1.6-0.1-3.8-1.1-5.5-0.9l0,0c0.8,0.1,2.3,0.6,3,0.7L33.8,70c0.1,0.3,0.3,0.6,0.5,0.9
			c0.7,0.3,1.4,0.5,2.1,0.6l-1.9-0.1c0.5,0.7,1,1.4,1.5,2.1c2.2,1.5,4.3,3.6,5.5,3.7C51.3,78.5,61,79.7,70.7,80.4z"/>
	</g>
</g>
<g>
	<g>
		<path class="st1" d="M-193,121"/>
	</g>
</g>
<text transform="matrix(0.712 0 0 1 49.666 69.8438)" class="st2 st3 st4">How it Works</text>
</svg>
