<?xml version="1.0" encoding="utf-8"?>
<!-- Generator: Adobe Illustrator 19.2.1, SVG Export Plug-In . SVG Version: 6.00 Build 0)  -->
<svg version="1.1" id="Layer_1" xmlns="http://www.w3.org/2000/svg" xmlns:xlink="http://www.w3.org/1999/xlink" x="0px" y="0px"
	 viewBox="0 0 1228 419" style="enable-background:new 0 0 1228 419;" xml:space="preserve">
<style type="text/css">
	.st0{fill:#00AEEF;}
	.st1{font-family:'FingerPaint-Regular';}
	.st2{font-size:190.8283px;}
	.st3{fill:#F7941E;}
	.st4{fill:#FCF49D;}
	.st5{fill:url(#SVGID_1_);}
	.st6{fill:#FBB040;}
	.st7{fill:#58595B;}
	.st8{fill:#414042;}
	.st9{fill:#7F3F98;}
	.st10{fill:#2BB673;}
	.st11{fill:#ED1C24;}
	.st12{fill:#F9ED32;}
	.st13{fill:#00A79D;}
	.st14{fill:#EE2A7B;}
	.st15{fill:url(#SVGID_2_);}
	.st16{fill:url(#SVGID_3_);}
	.st17{fill:url(#SVGID_4_);}
	.st18{fill:#EC008C;}
	.st19{font-size:149.3699px;}
	.st20{font-family:'AmaticSC-Bold';}
	.st21{font-size:65.8624px;}
	.st22{font-size:82.7157px;}
</style>
<text transform="matrix(0.6869 0 0 1 239.6577 333.2734)" class="st0 st1 st2">n</text>
<text transform="matrix(0.6869 0 0 1 172.21 335.665)" class="st3 st1 st2">l</text>
<path class="st4" d="M794.8,271.9c-2.4-1.8-7.2-4.9-14.5-6c-8-1.2-14.8,0.6-18.1,1.7c-2.2,2.6-5.6,6.4-9.5,11.3
	c-9.3,11.4-11.2,14.8-14.9,18.6c-4.8,5-13.2,11.1-28.3,14.7c10.4,2.2,22.9,3.9,37.3,4.1c8.4,0.2,16.2-0.2,23.4-0.8
	c1.2,0.3,9.6,2.2,18.7-3.4s11.6-14.2,11.9-15.4C798.9,288.4,796.8,280.1,794.8,271.9z"/>
<linearGradient id="SVGID_1_" gradientUnits="userSpaceOnUse" x1="993.4734" y1="186.0792" x2="1007.9783" y2="221.9802">
	<stop  offset="7.398994e-02" style="stop-color:#603913"/>
	<stop  offset="0.4534" style="stop-color:#3C2415"/>
	<stop  offset="0.8743" style="stop-color:#000000"/>
</linearGradient>
<path class="st5" d="M1194,112.4c-57.5,25.5-105.2,43.9-138.3,56c-64.1,23.5-98.2,32.5-163.9,58.7c-41.7,16.6-75.3,31.8-97,42
	c2.4,10.7,4.7,21.4,7.1,32.1c23.5-7.8,59.9-20.5,104-38.1c60.6-24.2,90.8-39.8,144.1-62.8c35.8-15.5,88.6-37.1,155.3-60.2
	c0.4-0.7,4.7-9.6,0.1-18.5C1201.8,114.8,1195.3,112.8,1194,112.4z"/>
<g>
	<path class="st6" d="M800.8,296.5c-8.8,7.6-18.4,14.7-28.2,14.3c-2.9-0.1-5.6-0.9-8.2-1.7c-1.8-0.5-3.7-1.1-5.7-1.4
		c-6.6-1-14,0.9-21.1,2.8c-7.9,2.1-16,4.2-23.4,2.5l0.8-1.8c6.9,1.6,14.4-0.4,22.4-2.5c7.3-1.9,14.9-3.9,22-2.8c2,0.3,4,0.9,5.9,1.4
		c2.6,0.8,5.1,1.5,7.8,1.6c9.5,0.4,18.7-6.9,26.6-13.7L800.8,296.5z"/>
</g>
<g>
	<path class="st6" d="M795.9,275.6l-1.3,1.6c-5.4-3.7-11.9-5.4-18.1-4.9c-7,0.6-13.9,4.3-17.9,9.5c-1.4,1.8-2.5,3.8-3.6,5.8
		c-0.9,1.5-1.7,3.1-2.8,4.6c-3.6,5.4-9.4,10.2-16.6,13.8c-6.7,3.4-14,5.6-19.9,7.3l-0.3-1.8c5.8-1.7,13-3.9,19.5-7.2
		c6.9-3.5,12.3-8,15.7-13c1-1.4,1.8-3,2.7-4.5c1.1-2.1,2.3-4.2,3.8-6.1c4.5-5.7,12-9.7,19.6-10.4
		C783.3,269.8,790.1,271.7,795.9,275.6z"/>
</g>
<g>
	<path class="st6" d="M798.2,281.9l-1.1,1.7c-4.2-1.8-9.1-3.7-14.4-3.2c-5.9,0.5-11.6,4-15.4,6.5c-3.7,2.5-7.4,5.3-10.9,8
		c-3.5,2.7-7.2,5.5-11,8.1c-9.2,6.1-17.7,9.4-25.2,9.6l0.3-1.9c7.1-0.2,15.2-3.4,24-9.2c3.7-2.5,7.4-5.3,10.9-8
		c3.6-2.7,7.3-5.6,11.1-8.1c4-2.7,10.2-6.3,16.5-6.9C788.6,278,793.8,280,798.2,281.9z"/>
</g>
<g>
	<path class="st6" d="M799.7,288.1c-2.1,2.7-5.4,4.9-9.5,6.4c-2.8,1-5.7,1.6-8.4,2.1l-1.9,0.4c-4.6,0.9-9.2,2.2-13.7,3.4l-29.3,7.9
		l-0.2-1.7l29.3-7.9c4.5-1.2,9.2-2.5,13.9-3.4l2-0.4c2.7-0.5,5.4-1.1,8.1-2c3.6-1.3,6.6-3.3,8.4-5.6L799.7,288.1z"/>
</g>
<path class="st7" d="M801.4,300.3c-2.4-10.7-4.8-21.4-7.1-32.2c2-2.7,3.9-3.8,5.3-4.3c2.4-0.9,3.2-0.1,5.9-1.1
	c2.4-0.9,2.2-1.8,5.3-3.3c2.2-1.1,4.2-1.5,5.5-1.9c2-0.5,3.7-0.6,5-0.7c3.5,11.8,7.1,23.6,10.6,35.5c-2,1.9-3.8,2.6-4.9,2.9
	c-2.5,0.7-3.2-0.3-6.4,0.4c-2.5,0.5-2.4,1.1-5.1,1.6c-2.9,0.5-3.3-0.2-5,0.6c-2.2,0.9-2.3,2.4-4.2,3.1
	C805.3,301.3,803.7,301.5,801.4,300.3z"/>
<g>
	<path class="st8" d="M803.6,263.4c2,3.5,2.1,7.9,2.1,12.2c0,1.6,0.1,3.3,0.2,4.8c0.5,6.1,2.8,11.6,4.9,17l-2.2,1.1
		c-2.2-5.5-4.5-11.1-5.1-17.5c-0.1-1.6-0.2-3.3-0.2-4.9c-0.1-4.3-0.2-8.3-2-11.5l2.1-1.3C803.6,263.2,803.6,263.3,803.6,263.4z"/>
</g>
<g>
	<path class="st8" d="M810,260.6c2.4,4.5,4.9,9.2,5.2,15c0.1,1.6,0,3.2-0.1,4.7c-0.1,1.2-0.2,2.5-0.2,3.7c0,4.7,1.5,9.1,4.2,12.5
		l-2,1.6c-3-3.7-4.6-8.4-4.6-13.6c0-1.3,0.1-2.6,0.2-3.9c0.1-1.6,0.2-3,0.1-4.5c-0.2-5.3-2.6-9.8-4.9-14.2L810,260.6z"/>
</g>
<g>
	<path class="st8" d="M819.6,257.5c2.2,3.9,2.3,8.7,2.4,13.3c0,1.8,0.1,3.6,0.2,5.3c0.6,6.7,3.1,12.8,5.4,18.6l-2.4,1.2
		c-2.4-6-5-12.2-5.6-19.2c-0.2-1.8-0.2-3.6-0.2-5.4c-0.1-4.7-0.2-9.1-2.2-12.6l2.3-1.4C819.5,257.3,819.6,257.4,819.6,257.5z"/>
</g>
<text transform="matrix(0.6869 0 0 1 32.1919 307.668)" class="st9 st1 st2">K</text>
<text transform="matrix(0.6869 0 0 1 130.6475 334.623)" class="st10 st1 st2">i</text>
<text transform="matrix(0.6869 0 0 1 352.5469 307.626)" class="st11 st1 st2">T</text>
<text transform="matrix(0.6869 0 0 1 456.1738 326.3223)" class="st12 st1 st2">i</text>
<text transform="matrix(0.6869 0 0 1 511.7026 320.085)" class="st13 st1 st2">m</text>
<text transform="matrix(0.6869 0 0 1 659.6636 312.8174)" class="st14 st1 st2">e</text>
<linearGradient id="SVGID_2_" gradientUnits="userSpaceOnUse" x1="804.9009" y1="261.5435" x2="819.6842" y2="298.1333">
	<stop  offset="7.398994e-02" style="stop-color:#58595B;stop-opacity:0"/>
	<stop  offset="0.4534" style="stop-color:#58595B;stop-opacity:0.5"/>
	<stop  offset="0.8743" style="stop-color:#000000"/>
</linearGradient>
<path class="st15" d="M801.7,300c-2.4-10.7-4.8-21.4-7.1-32.2c2-2.7,3.9-3.8,5.3-4.3c2.4-0.9,3.2-0.1,5.9-1.1
	c2.4-0.9,2.2-1.8,5.3-3.3c2.2-1.1,4.2-1.5,5.5-1.9c2-0.5,3.7-0.6,5-0.7c3.5,11.8,7.1,23.6,10.6,35.5c-2,1.9-3.8,2.6-4.9,2.9
	c-2.5,0.7-3.2-0.3-6.4,0.4c-2.5,0.5-2.4,1.1-5.1,1.6c-2.9,0.5-3.3-0.2-5,0.6c-2.2,0.9-2.3,2.4-4.2,3.1
	C805.6,301,804,301.2,801.7,300z"/>
<linearGradient id="SVGID_3_" gradientUnits="userSpaceOnUse" x1="744.9622" y1="274.3572" x2="764.3101" y2="322.245">
	<stop  offset="7.398994e-02" style="stop-color:#FFF200;stop-opacity:0"/>
	<stop  offset="0.4534" style="stop-color:#FFF200;stop-opacity:0.5"/>
	<stop  offset="0.8743" style="stop-color:#000000;stop-opacity:0.7"/>
</linearGradient>
<path class="st16" d="M794.7,271.8c-2.4-1.8-7.2-4.9-14.5-6c-8-1.2-14.8,0.6-18.1,1.7c-2.2,2.6-5.6,6.4-9.5,11.3
	c-9.3,11.4-11.2,14.8-14.9,18.6c-4.8,5-13.2,11.1-28.3,14.7c10.4,2.2,22.9,3.9,37.3,4.1c8.4,0.2,16.2-0.2,23.4-0.8
	c1.2,0.3,9.6,2.2,18.7-3.4c9.1-5.6,11.6-14.2,11.9-15.4C798.7,288.2,796.7,280,794.7,271.8z"/>
<path class="st14" d="M760.2,316.8c-3.6-3.9-4.4-7.5-4.4-10c-0.1-4,1.7-5.3,1.1-9.1c-0.8-4.6-3.7-4.7-3.5-8.4
	c0.2-3.3,2.5-4.3,3.3-8.4c0.6-3.1-0.1-5.7-0.9-7.4c-7.5,5.8-13.3,10.7-17.1,14.2c-6.3,5.6-9,8.6-14.9,13.4
	c-6,4.9-11.2,8.4-14.6,10.6c6.5,1.8,14.3,3.4,23.1,4.4C742.6,317.1,752.1,317.2,760.2,316.8z"/>
<linearGradient id="SVGID_4_" gradientUnits="userSpaceOnUse" x1="729.4058" y1="284.3587" x2="745.0831" y2="323.1616">
	<stop  offset="7.398994e-02" style="stop-color:#EE2A7B;stop-opacity:0"/>
	<stop  offset="0.4534" style="stop-color:#EE2A7B;stop-opacity:0.5"/>
	<stop  offset="0.8743" style="stop-color:#000000;stop-opacity:0.7"/>
</linearGradient>
<path class="st17" d="M760.5,316.9c-3.6-3.9-4.4-7.5-4.4-10c-0.1-4,1.7-5.3,1.1-9.1c-0.8-4.6-3.7-4.7-3.5-8.4
	c0.2-3.3,2.5-4.3,3.3-8.4c0.6-3.1-0.1-5.7-0.9-7.4c-7.5,5.8-13.3,10.7-17.1,14.2c-6.3,5.6-9,8.6-14.9,13.4
	c-6,4.9-11.2,8.4-14.6,10.6c6.5,1.8,14.3,3.4,23.1,4.4C742.9,317.3,752.4,317.3,760.5,316.9z"/>
<text transform="matrix(0.6869 0 0 1 221.791 291.7139)" class="st18 st1 st19">‘</text>
<text transform="matrix(1.5793 0 0 1 38.8423 389.8047)" class="st20 st21">Pick and Paint your own</text>
<text transform="matrix(1.5793 0 0 1 743.376 388.7646)" class="st20 st22">Ceramics</text>
<text transform="matrix(1.5793 0 0 1 745.9395 384.9199)" class="st0 st20 st22">Ceramics</text>
</svg>
