<?xml version="1.0" encoding="utf-8"?>
<!-- Generator: Adobe Illustrator 19.2.1, SVG Export Plug-In . SVG Version: 6.00 Build 0)  -->
<svg version="1.1" id="Layer_1" xmlns="http://www.w3.org/2000/svg" xmlns:xlink="http://www.w3.org/1999/xlink" x="0px" y="0px"
	 viewBox="0 0 1228 419" style="enable-background:new 0 0 1228 419;" xml:space="preserve">
<style type="text/css">
	.st0{enable-background:new    ;}
	.st1{fill:#00AEEF;}
	.st2{fill:#F7941E;}
	.st3{fill:#FCF49D;}
	.st4{fill:url(#SVGID_1_);}
	.st5{fill:#FBB040;}
	.st6{fill:#58595B;}
	.st7{fill:#414042;}
	.st8{fill:#7F3F98;}
	.st9{fill:#2BB673;}
	.st10{fill:#ED1C24;}
	.st11{fill:#F9ED32;}
	.st12{fill:#00A79D;}
	.st13{fill:#EE2A7B;}
	.st14{fill:url(#SVGID_2_);}
	.st15{fill:url(#SVGID_3_);}
	.st16{fill:url(#SVGID_4_);}
	.st17{fill:#EC008C;}
</style>
<g class="st0">
	<path class="st1" d="M247.5,321.1c0-0.6,0.1-1.4,0.4-2.3c0.3-0.9,0.4-1.8,0.4-2.9c0.3-3.1,0.4-5.2,0.5-6.6c0.1-1.3,0.1-2.5,0.1-3.5
		c0-5.3-0.1-11.1-0.3-17.3c-0.2-6.2-0.5-12.1-0.7-17.8c0-1.8,0-3.9-0.1-6.3c0-2.4-0.2-4.3-0.3-5.7c0.3-4.5,0.5-8.8,0.7-13.2
		c0.2-4.3,0.3-8.7,0.3-13.2v-4.8c0-1.7,0-3.3-0.1-5c0.3,0.4,0.5,0.6,0.8,0.6c0.3,0,0.7-0.2,1.1-0.6c0.4-0.4,0.8-0.6,1.1-0.6
		c0.6,0,1.1,1,1.5,2.9c0.4,1.9,0.6,6.1,0.6,12.6h1.2c0.4-7.1,1.1-12.8,2-17c0.9-4.2,1.9-6.3,2.8-6.3c0.4,0,1.1,1.4,2.1,4.1
		c1,2.7,1.4,7,1.4,12.9l1.4-3.4c1-1.7,2-3.4,3.2-5.2c1.2-1.8,2.5-3.4,4-4.8c1.5-1.4,3.1-2.6,5-3.5c1.8-1,3.9-1.4,6.3-1.4
		c4.5,0,8.5,1.5,11.9,4.5c3.4,3,6.2,6.9,8.5,11.6c2.3,4.8,4.1,10.2,5.6,16.2c1.4,6,2.6,12.2,3.3,18.3c0.8,6.2,1.3,12.1,1.6,17.8
		c0.3,5.7,0.4,10.6,0.4,14.7c0,3.7-0.2,5.9-0.5,6.6c-0.3,0.7-0.9,1.1-1.6,1.2c-0.2-9.8-0.6-19.8-1.3-30c-0.7-10.2-2.4-20-5-29.6
		c2.4,10.1,3.9,19.9,4.5,29.7c0.7,9.7,1,19.5,1,29.3c-0.5-0.4-1-0.6-1.4-0.6c-0.4,0-0.7,0.2-0.9,0.6c0,1,0,2.1,0.1,3.2
		c0.1,1,0.2,2,0.2,3.1c0,1,0.1,2,0.1,2.9c-0.5,2.9-1,5-1.6,6.3c-0.5,1.3-1,1.9-1.4,1.9c-0.5,0-1-0.3-1.3-1c-0.4-0.7-0.7-1.6-1-2.6
		c-0.3-1-0.6-2.1-0.9-3.3c-0.3-1.2-0.7-2.4-1.2-3.5c0.2-2.2,0.3-3.9,0.4-5.2c0.1-1.3,0.1-2.4,0.1-3.3c0-3.4,0-7.6-0.1-12.4
		c-0.1-4.8-0.3-9.9-0.7-15.2c-0.4-5.3-1-10.6-1.8-15.8c-0.8-5.3-2-10-3.4-14.1c-1.4-4.1-3.3-7.5-5.4-10.1c-2.2-2.6-4.8-3.9-7.9-3.9
		c-2.1,0-4,1-5.6,3.1c-1.6,2-3,4.6-4.2,7.8c-1.2,3.2-2.2,6.6-3.1,10.4c-0.9,3.8-1.6,7.3-2.1,10.8c0.8-3.6,1.6-7.2,2.4-10.9
		c0.8-3.7,1.8-7.1,3-10.1s2.6-5.6,4.1-7.5c1.6-2,3.4-3,5.5-3c2.7,0,5,1.1,7,3.2c2,2.2,3.6,5,5,8.4c1.4,3.4,2.4,7.3,3.3,11.7
		c0.8,4.4,1.5,8.8,1.9,13.4c0.4,4.5,0.7,8.9,0.9,13.2c0.1,4.3,0.2,7.9,0.2,11c0,2.4,0,4.8-0.1,7.3c0,2.4-0.1,4.9-0.2,7.4
		c-0.8-4.8-1.4-9.9-1.8-15.2c-0.4-5.3-0.8-10.5-1.2-15.6c-0.4-5.2-1-10.1-1.6-14.9c-0.7-4.8-1.6-9.2-2.8-13.3l0.9-1.9
		c-0.9-2.9-1.9-5.2-2.9-6.8c-1.1-1.6-2.2-2.8-3.2-3.5c-1-0.8-2-1.2-2.9-1.3c-0.9-0.1-1.4-0.2-1.7-0.2c-2.2,0-4.1,1.1-5.8,3.4
		s-3.2,5.4-4.5,9.3c-1.3,3.9-2.4,8.4-3.3,13.5c-1,5.1-1.8,10.4-2.5,16c-0.7,5.6-1.3,11.2-1.8,16.9c-0.5,5.7-1,11-1.3,15.9h1.2
		c0.4-4.3,0.9-9.1,1.4-14.3c0.5-5.2,1-10.5,1.6-15.9c0.6-5.4,1.2-10.7,2-15.7c0.8-5.1,1.7-9.7,2.8-13.7c1.1-4.1,2.4-7.4,3.9-9.9
		c1.4-2.4,3.1-3.8,5.1-4.2c-1.9,0.6-3.5,2.4-4.8,5.3c-1.4,3.1-2.6,6.8-3.7,11.3c-1,4.5-2,9.3-2.8,14.6c-0.8,5.3-1.6,10.3-2.3,15.2
		l-2.6,27.9c-0.4,1.8-0.6,3.4-0.8,4.8l-0.5,4c-0.2,1.3-0.4,2.6-0.5,4.1c-0.2,1.5-0.4,3.1-0.7,5.1l-0.4,2.3h-0.8l-13.2-6.5
		c-0.4-0.1-0.8-0.3-1-0.6C248,321.8,247.8,321.4,247.5,321.1z M270.3,223.2c-1.7,2.2-3.1,4.5-4.1,7c-1,2.5-1.9,5-2.8,7.5v0.2
		c1.2-3.7,2.9-7.4,5.1-11.3c2.1-3.6,4.9-6.2,8.4-8c-1.1,0.5-2.2,1-3.3,1.5C272.4,220.8,271.3,221.8,270.3,223.2z M289.6,238.6
		c-0.7-0.8-1.5-1.4-2.4-1.8c-0.9-0.4-2-1-3.3-1.8l-0.1-0.4c1.5,0.1,2.8,0.6,3.9,1.4c1.1,0.8,2.2,2.3,3.3,4.3L289.6,238.6z
		 M286.1,216.9c-0.4-0.1-1-0.2-1.8-0.2c2.8,1,5.4,2.1,7.9,3.3c2.4,1.2,4.8,3.6,6.9,7.2c-1.5-2.9-3.4-5.2-5.8-6.9
		C290.8,218.7,288.4,217.5,286.1,216.9z M299.3,227.6c1.2,2.2,2.4,4.6,3.4,7.4c1,2.8,2,5.3,2.8,7.4c-0.9-2.9-1.7-5.6-2.5-8
		C302.2,232,301,229.7,299.3,227.6z"/>
</g>
<g class="st0">
	<path class="st2" d="M178.8,293.9c0-0.9,0-2,0.1-3.4c0-1.4,0.1-2.8,0.2-4.2l0.3-4.4c0.1-1.5,0.2-2.9,0.3-4
		c-0.1,1.9-0.2,4.3-0.2,7.2c0,2.9-0.1,5-0.1,6.4v7.6c0,1,0,2.1,0.1,3.2c0,1.1,0.1,2.2,0.2,3.2c-0.4-2-0.6-4-0.7-6
		C178.8,297.5,178.8,295.7,178.8,293.9z M179.6,277.7c0-0.3,0-0.4,0-0.6c0.1-0.1,0.1-0.3,0.1-0.4
		C179.7,277.2,179.6,277.5,179.6,277.7z M213.5,319.4c-0.5,0-1,0.4-1.6,1.1c-1.8,1-3.7,1.9-5.7,2.6c-2,0.7-4,1-6.1,1
		c-5.9,0-10.4-2.5-13.4-7.5c-3-5-4.5-12.3-4.5-21.8c0-4.6,0.1-9.2,0.4-13.7c0.3-4.5,0.4-8.6,0.5-12.4c-0.3,3.9-0.6,7.9-0.9,11.8
		c-0.4,4.2-0.7,8.6-0.7,13.2c0,2.3,0.2,5.2,0.5,8.8c0.3,3.6,1.1,7,2.3,10.4c1.2,3.4,3.1,6.3,5.6,8.8c2.5,2.5,6,3.7,10.5,3.7
		c2.1,0,4.1-0.3,6.1-1c2-0.7,3.9-1.6,5.7-2.6c-1.2,2.2-2.9,3.9-4.9,5.2c-2.1,1.3-4.5,1.9-7.3,1.9c-3.6,0-7.1-1.1-10.4-3.2
		c-3.4-2.2-5.9-5.8-7.7-10.9l0.8-2.1c-1.6-4.1-2.4-7.7-2.6-11c-0.2-3.2-0.4-6.5-0.5-9.6l2.2-33.4c0.4-5.7,0.7-11.4,0.9-17.2
		l-0.4-0.4c-0.7,6-1.3,11.7-1.7,17.2c-0.4,5.3-0.8,10.6-1,15.8v-5c0.5-5.9,1-11.6,1.4-17.3c0.4-5.7,1-11.4,1.7-17.3
		c0.7-5.8,1.6-12,2.7-18.3c1.1-6.4,2.6-13.2,4.4-20.4c2.4-4.8,3.9-9.6,4.3-14.3c0.3,0,0.5,0.1,0.8,0.2c0.3,0.1,0.8,0.2,1.6,0.2
		c0.5,0,1,0.2,1.4,0.5c0.4,0.3,0.6,1,0.6,2c0,1.1-0.3,2.9-0.8,5.2c0.2,0,0.4,0.1,0.8,0.3c0.3,0.2,0.6,0.3,0.8,0.3
		c1.2-3.1,2.3-5.7,3.3-7.8c1-2.2,2-3.2,2.9-3.2c0.6,0,1.2,0.5,1.6,1.6c0.5,1.1,0.7,2.8,0.7,5.2c-0.2,4.6-0.7,8.9-1.5,13
		c-0.8,4.1-1.7,8-2.7,11.8c-1,3.8-1.9,7.7-2.8,11.6c-0.9,3.9-1.6,8.1-2,12.4c-0.5,5-1,10-1.6,15.2s-1,10.3-1.4,15.4
		c-0.4,5.1-0.9,10-1.2,14.7c-0.4,4.7-0.7,9.1-0.9,13.2c0,3.7,0.4,7.5,1.2,11.5c0.4,1,0.8,1.8,1.2,2.2c0.3,0.4,1,0.7,1.8,0.7
		c1,0,2.2-0.2,3.5-0.6c1.3-0.4,2.4-0.6,3.3-0.6c0.6,0,1,0.1,1.3,0.4c0.3,0.3,0.5,0.7,0.7,1.3c-1.2,1-2.5,1.8-3.9,2.3
		c-1.4,0.5-2.7,0.8-3.9,0.8h-1.8c-0.4,0-0.7,0-0.9,0c1,0.3,2.2,0.4,3.7,0.4c2.3,0,4.6-0.8,6.9-2.3c0,1.1,0.3,2.1,0.8,2.9
		c0.3-0.1,0.9-0.6,1.8-1.3c1-0.8,1.8-1.1,2.5-1.1c2.1,0,3.1,1.3,3.1,3.8c0,0.4-0.1,1-0.3,1.7C214.6,315.8,214.2,317.3,213.5,319.4z
		 M191.6,293.1c0-2.9,0.1-5.8,0.4-8.6c0.3-2.8,0.5-5.7,0.7-8.6c-0.4,2.9-0.8,5.8-1,8.6c-0.2,2.8-0.4,5.7-0.6,8.6v2.7
		c0,0.9,0,1.8,0.1,2.9v-1.3c0-0.6,0-1.3,0.1-2.1C191.4,294.4,191.5,293.7,191.6,293.1z"/>
</g>
<path class="st3" d="M794.8,271.9c-2.4-1.8-7.2-4.9-14.5-6c-8-1.2-14.8,0.6-18.1,1.7c-2.2,2.6-5.6,6.4-9.5,11.3
	c-9.3,11.4-11.2,14.8-14.9,18.6c-4.8,5-13.2,11.1-28.3,14.7c10.4,2.2,22.9,3.9,37.3,4.1c8.4,0.2,16.2-0.2,23.4-0.8
	c1.2,0.3,9.6,2.2,18.7-3.4s11.6-14.2,11.9-15.4C798.9,288.4,796.8,280.1,794.8,271.9z"/>
<linearGradient id="SVGID_1_" gradientUnits="userSpaceOnUse" x1="993.4651" y1="233.9174" x2="1007.9621" y2="198.0359" gradientTransform="matrix(1 0 0 -1 0 420)">
	<stop  offset="7.398994e-02" style="stop-color:#603913"/>
	<stop  offset="0.4534" style="stop-color:#3C2415"/>
	<stop  offset="0.8743" style="stop-color:#000000"/>
</linearGradient>
<path class="st4" d="M1194,112.4c-57.5,25.5-105.2,43.9-138.3,56c-64.1,23.5-98.2,32.5-163.9,58.7c-41.7,16.6-75.3,31.8-97,42
	c2.4,10.7,4.7,21.4,7.1,32.1c23.5-7.8,59.9-20.5,104-38.1c60.6-24.2,90.8-39.8,144.1-62.8c35.8-15.5,88.6-37.1,155.3-60.2
	c0.4-0.7,4.7-9.6,0.1-18.5C1201.8,114.8,1195.3,112.8,1194,112.4z"/>
<g>
	<path class="st5" d="M800.8,296.5c-8.8,7.6-18.4,14.7-28.2,14.3c-2.9-0.1-5.6-0.9-8.2-1.7c-1.8-0.5-3.7-1.1-5.7-1.4
		c-6.6-1-14,0.9-21.1,2.8c-7.9,2.1-16,4.2-23.4,2.5l0.8-1.8c6.9,1.6,14.4-0.4,22.4-2.5c7.3-1.9,14.9-3.9,22-2.8c2,0.3,4,0.9,5.9,1.4
		c2.6,0.8,5.1,1.5,7.8,1.6c9.5,0.4,18.7-6.9,26.6-13.7L800.8,296.5z"/>
</g>
<g>
	<path class="st5" d="M795.9,275.6l-1.3,1.6c-5.4-3.7-11.9-5.4-18.1-4.9c-7,0.6-13.9,4.3-17.9,9.5c-1.4,1.8-2.5,3.8-3.6,5.8
		c-0.9,1.5-1.7,3.1-2.8,4.6c-3.6,5.4-9.4,10.2-16.6,13.8c-6.7,3.4-14,5.6-19.9,7.3l-0.3-1.8c5.8-1.7,13-3.9,19.5-7.2
		c6.9-3.5,12.3-8,15.7-13c1-1.4,1.8-3,2.7-4.5c1.1-2.1,2.3-4.2,3.8-6.1c4.5-5.7,12-9.7,19.6-10.4
		C783.3,269.8,790.1,271.7,795.9,275.6z"/>
</g>
<g>
	<path class="st5" d="M798.2,281.9l-1.1,1.7c-4.2-1.8-9.1-3.7-14.4-3.2c-5.9,0.5-11.6,4-15.4,6.5c-3.7,2.5-7.4,5.3-10.9,8
		s-7.2,5.5-11,8.1c-9.2,6.1-17.7,9.4-25.2,9.6l0.3-1.9c7.1-0.2,15.2-3.4,24-9.2c3.7-2.5,7.4-5.3,10.9-8c3.6-2.7,7.3-5.6,11.1-8.1
		c4-2.7,10.2-6.3,16.5-6.9C788.6,278,793.8,280,798.2,281.9z"/>
</g>
<g>
	<path class="st5" d="M799.7,288.1c-2.1,2.7-5.4,4.9-9.5,6.4c-2.8,1-5.7,1.6-8.4,2.1l-1.9,0.4c-4.6,0.9-9.2,2.2-13.7,3.4l-29.3,7.9
		l-0.2-1.7l29.3-7.9c4.5-1.2,9.2-2.5,13.9-3.4l2-0.4c2.7-0.5,5.4-1.1,8.1-2c3.6-1.3,6.6-3.3,8.4-5.6L799.7,288.1z"/>
</g>
<path class="st6" d="M801.4,300.3c-2.4-10.7-4.8-21.4-7.1-32.2c2-2.7,3.9-3.8,5.3-4.3c2.4-0.9,3.2-0.1,5.9-1.1
	c2.4-0.9,2.2-1.8,5.3-3.3c2.2-1.1,4.2-1.5,5.5-1.9c2-0.5,3.7-0.6,5-0.7c3.5,11.8,7.1,23.6,10.6,35.5c-2,1.9-3.8,2.6-4.9,2.9
	c-2.5,0.7-3.2-0.3-6.4,0.4c-2.5,0.5-2.4,1.1-5.1,1.6c-2.9,0.5-3.3-0.2-5,0.6c-2.2,0.9-2.3,2.4-4.2,3.1
	C805.3,301.3,803.7,301.5,801.4,300.3z"/>
<g>
	<path class="st7" d="M803.6,263.4c2,3.5,2.1,7.9,2.1,12.2c0,1.6,0.1,3.3,0.2,4.8c0.5,6.1,2.8,11.6,4.9,17l-2.2,1.1
		c-2.2-5.5-4.5-11.1-5.1-17.5c-0.1-1.6-0.2-3.3-0.2-4.9c-0.1-4.3-0.2-8.3-2-11.5l2.1-1.3C803.6,263.2,803.6,263.3,803.6,263.4z"/>
</g>
<g>
	<path class="st7" d="M810,260.6c2.4,4.5,4.9,9.2,5.2,15c0.1,1.6,0,3.2-0.1,4.7c-0.1,1.2-0.2,2.5-0.2,3.7c0,4.7,1.5,9.1,4.2,12.5
		l-2,1.6c-3-3.7-4.6-8.4-4.6-13.6c0-1.3,0.1-2.6,0.2-3.9c0.1-1.6,0.2-3,0.1-4.5c-0.2-5.3-2.6-9.8-4.9-14.2L810,260.6z"/>
</g>
<g>
	<path class="st7" d="M819.6,257.5c2.2,3.9,2.3,8.7,2.4,13.3c0,1.8,0.1,3.6,0.2,5.3c0.6,6.7,3.1,12.8,5.4,18.6l-2.4,1.2
		c-2.4-6-5-12.2-5.6-19.2c-0.2-1.8-0.2-3.6-0.2-5.4c-0.1-4.7-0.2-9.1-2.2-12.6l2.3-1.4C819.5,257.3,819.6,257.4,819.6,257.5z"/>
</g>
<g class="st0">
	<path class="st8" d="M58.8,255.2c0.3,1.3,0.7,3.2,1.2,5.7c0.4,2.5,0.9,4.4,1.3,5.5c3,0,5.9,0.2,8.8,0.6c2.9,0.4,5.7,1.2,8.5,2.5
		c1.7,0.9,3.3,1.9,4.9,3.1c-1.1-0.8-2.3-1.5-3.4-2.1c-2.4-1.1-4.9-1.9-7.5-2.4c-2.6-0.4-5.4-0.7-8.3-0.7c-0.4,0-0.9,0-1.4,0.1
		c-0.5,0.1-0.9,0.1-1.4,0.1l-0.7,0.2c-0.5-1.4-0.9-3.2-1.2-5.3c-0.3-2.2-0.7-4.1-1.1-5.7c-0.3,2.7-0.6,6.2-0.9,10.6
		c-0.4,4.4-0.7,8.9-1.1,13.5c-0.4,4.6-0.7,9.1-1,13.4c-0.3,4.3-0.4,7.6-0.4,10c0,0.6,0,1.6,0.1,2.9c0,1.3,0.1,2.6,0.1,4
		c0,1.9-0.1,3.7-0.3,5.2c-0.2,1.6-0.8,2.4-1.6,2.4c-0.2,0-0.4-0.1-0.8-0.4c0.2-2.5,0.2-5.2,0.1-7.8c0-1.5,0-3.1,0-4.6l-0.5,12.4
		l-1.2-0.4l-1.2,0.4v3.4c-0.4,0.9-0.8,1.7-1.4,2.6c-0.6,0.8-1.2,1.2-2,1.2c-1.5,0-2.5-1-3.1-3c-0.6-2-0.9-3.7-0.9-5.2
		c0-1.8,0-3.6,0-5.3c0.1-1.5,0.1-3.1,0.1-4.6c-0.3,1.7-0.5,3.4-0.7,5.2c-0.3,2-0.5,4.1-0.7,6.3c-0.4-1-0.7-2.3-0.9-3.7
		c-0.2-1.5-0.3-2.8-0.3-3.9l1.2-21h1.7c-0.1-1.3-0.2-2.5-0.2-3.7c0-1.2-0.1-2.4-0.1-3.7c0-6.9,0.3-13.8,1-20.7
		c0.7-6.9,1-13.8,1-20.7c0-1.4,0-2.8-0.1-4.2c0-1.4-0.1-2.8-0.2-4.2h-0.8c0,8.4-0.2,16.7-0.5,24.9c-0.4,8.2-0.9,16.5-1.6,24.9
		c1-19.1,1.6-38.2,1.6-57.4c0-3.9-0.2-7.9-0.5-11.9c-0.3-4-0.5-8-0.5-11.9c0-2.9,0.2-5.7,0.6-8.4c0.4-2.7,0.6-5.5,0.6-8.4v-2.1
		c0-0.8,0-1.5-0.1-2.1c0.6,0,1.2-0.1,1.6-0.3c0.5-0.2,0.9-0.3,1.2-0.3c0.9,0,1.4,0.7,1.6,2c0.2,1.3,0.3,2.5,0.3,3.5v0.8h1.7
		c0.1-0.8,0.2-1.7,0.5-3c0.2-1.2,0.5-2.4,0.9-3.6c0.3-1.2,0.8-2.2,1.4-3.1c0.6-0.8,1.2-1.2,1.9-1.2c0.9,0,1.6,1.2,2.3,3.5
		c0.7,2.4,1.2,5.3,1.6,9c0.4,3.6,0.8,7.6,1,12c0.2,4.4,0.4,8.6,0.5,12.6c0.1,4,0.2,7.6,0.2,10.8c0,3.2,0.1,5.4,0.1,6.7v9.7
		c4.6-7.8,9.8-15.5,15.5-23.3c5.7-7.8,11.3-14.9,16.8-21.4c2.1-2.4,4.1-4.7,5.9-6.8c1.8-2.1,3.6-4.7,5.4-7.7l2.9,4.4
		c-0.4,1.4-1,2.7-1.6,3.9c-0.7,1.2-1.3,2.3-2,3.3l1.2,1.1c0.5-0.6,1.2-1.4,2-2.2c0.8-0.8,1.6-1.6,2.5-2.4c0.9-0.8,1.7-1.4,2.6-2
		c0.9-0.6,1.7-0.9,2.4-0.9c1,0,1.6,0.8,1.6,2.3c0,3.1-0.7,5.9-2,8.6c-1.3,2.7-3.5,5.9-6.6,9.8c-3.1,3.9-7.1,8.8-12.1,14.7
		c-5,5.9-11.3,13.6-18.7,23.2c4.5,1,8.5,2.8,12.3,5.3c3.7,2.5,7.1,5.7,10,9.5c3,3.8,5.6,8.1,7.9,12.9c2.3,4.8,4.2,9.8,5.8,15.2
		c0.3,1.3,0.9,3,1.7,5.2c0.8,2.2,1.6,4.6,2.3,7c0.7,2.4,1.4,4.7,2,7c0.6,2.2,0.9,4,0.9,5.2c0,0.6-0.1,1.3-0.4,2.1
		c-0.3,0.8-0.7,1.3-1.2,1.5c-1.5-6.4-3-12.6-4.7-18.7c-1.6-6.1-3.7-12-6.2-17.6c2.4,5.7,4.3,11.6,5.8,17.7c1.5,6,2.9,12.2,4.1,18.6
		l-2,0.6c0.2,0.6,0.4,1.6,0.7,3c0.3,1.3,0.5,2.3,0.5,2.8c0,1-0.1,2.3-0.3,3.9c-0.2,1.6-0.9,2.4-1.9,2.4c-1,0-1.9-0.5-2.8-1.5
		c-0.9-1-1.6-2-2.2-3.1c-1-7.4-2.4-14.5-4.2-21.4c-1.8-6.9-4.2-13.1-7.2-18.7c2.4,5,4.4,10.6,5.9,16.9c1.5,6.3,2.8,13.3,3.9,20.9
		c-1.3-2.5-2.4-5.3-3.3-8.2c-0.9-2.9-1.8-5.9-2.6-8.9c-0.8-3-1.7-5.9-2.6-8.9c-0.9-2.9-1.9-5.7-3.1-8.4l1.2-1.3
		c-2.4-4.1-4.9-7.4-7.5-10.1c-2.5-2.7-5.2-4.8-8-6.5c-2.8-1.7-5.8-2.8-8.9-3.4c-3.1-0.6-6.5-1-10.1-1l-2.4-10.9L58.8,255.2z
		 M42.5,307.5c0.1-0.1,0.1-0.3,0.1-0.4C42.6,307.2,42.5,307.4,42.5,307.5z M45.4,265.3c-0.2,3.6-0.4,7.3-0.7,11.1
		c0.4-4.1,0.7-7.9,0.9-11.6c0.3-3.9,0.4-7.6,0.4-10.9C45.8,257.8,45.6,261.6,45.4,265.3z M54.6,274.7c-0.4,4.1-0.6,8.2-0.8,12.4
		c0.4-4.1,0.8-8.2,1-12.4c0.3-4.1,0.7-8.1,1.2-12C55.4,266.6,55,270.6,54.6,274.7z M69.2,227.9l-0.4-0.8L60,240.5l-0.1,2.9
		L69.2,227.9z M68.9,262.3c7.2,1.4,13,4,17.4,7.8C81.4,265.2,75.6,262.6,68.9,262.3z M78.2,249.5c5.8,2.3,11,6,15.7,11.3
		c4.7,5.2,8.7,11.4,12,18.5c-3-7.4-6.9-13.7-11.8-18.9C89.2,255.1,83.9,251.5,78.2,249.5z M85.1,273.9c-0.4-0.4-0.9-0.8-1.3-1.1
		C84.3,273.1,84.7,273.5,85.1,273.9z M86.2,274.8l0.4,0.4c-0.4-0.4-0.8-0.8-1.2-1.1C85.7,274.3,85.9,274.6,86.2,274.8z M89.7,279
		c-1-1.4-2-2.6-3-3.6l-0.1-0.2C87.7,276.2,88.8,277.5,89.7,279z M90.9,280.8c0.2,0.3,0.3,0.5,0.5,0.8
		C91.3,281.3,91.1,281,90.9,280.8z M92.1,282.7c-0.2-0.4-0.4-0.8-0.7-1.1C91.7,281.9,91.9,282.3,92.1,282.7z M92.5,283.2
		c-0.2-0.1-0.3-0.3-0.4-0.6C92.3,282.8,92.4,283,92.5,283.2z"/>
</g>
<g class="st0">
	<path class="st9" d="M140.6,324.7c0.3-3.6,0.7-7.7,1-12.5c0.3-4.8,0.6-9.6,0.9-14.4c0.3-4.8,0.5-9.6,0.8-14.2
		c0.3-4.6,0.5-8.7,0.8-12.1c-0.4,3.4-0.8,7.4-1.2,11.8c-0.4,4.5-0.7,9-1,13.7c-0.4,4.7-0.7,9.4-1,14c-0.4,4.6-0.7,8.8-0.9,12.5
		c-1.3-1.3-2-3-2-5.2c0-2.5,0-4.7,0.1-6.4c0.1-1.7,0.2-3.7,0.4-6l1.4-1.9c-0.1-0.6-0.1-1.2-0.1-1.7v-1.9c0-2.9,0.2-6.3,0.7-10
		c0.4-3.8,0.9-7.6,1.5-11.5c0.6-3.9,1.1-7.6,1.5-11.3c0.4-3.6,0.7-6.8,0.7-9.4l-1.6-0.6c-0.2,3.1-0.4,6.5-0.8,10.4
		c-0.4,3.9-0.7,7.9-1.1,12c-0.4,4.1-0.8,8.2-1.1,12.3c-0.2,2.2-0.4,4.2-0.5,6.1c0.2-3.6,0.4-7.4,0.7-11.4c0.4-5.9,0.9-11.7,1.4-17.5
		c0.5-5.8,0.9-11.5,1.4-17.1c0.4-5.6,0.9-10.7,1.3-15.5c0-1.9,0.3-4,1-6.2c0.7-2.2,1.1-4.5,1.4-7c0.5,0.3,1,0.4,1.3,0.4h0.9
		c0.9,0,1.4,0.3,1.7,0.9c0.3,0.6,0.4,1.4,0.4,2.4v1l1.2,0.6c0.7-1.9,1.5-3.4,2.5-4.6c1-1.1,1.9-1.7,2.9-1.7c2.1,0,3.1,3.2,3.1,9.7
		c0,3.4-0.2,7.1-0.7,11c-0.5,3.9-0.7,7.7-0.7,11.4v2.5c0,4.1-0.3,8.5-0.9,13.3c-0.6,4.8-1.3,9.6-2,14.5c-0.7,4.9-1.4,9.6-2,14.2
		c-0.6,4.6-0.9,8.8-0.9,12.6c0,0.9,0,1.8,0.1,2.9c0.1,1,0.1,2,0.1,2.9c0,1.9-0.2,3.1-0.7,3.5c-0.5,0.4-1.1,0.7-1.8,0.7
		c0-1.7,0-3.7-0.1-6.1c-0.1-2.4-0.1-4.6-0.1-6.5c-0.2,1.4-0.3,3.3-0.3,5.7c0,2.4-0.1,4.7-0.3,6.9h-2v2.3c-0.8,2-1.8,3.1-3.1,3.1
		c-0.6,0-1.3-0.3-2.1-0.8C141.7,325.9,141,325.3,140.6,324.7z M138.6,303.1c0.1-1.4,0.2-2.8,0.3-4.2
		C138.8,300.5,138.7,301.9,138.6,303.1z M167.6,178.1c-1.5,1.3-2.8,2.9-4.1,5c-1.2,2-2.5,4-3.8,5.9c0.8-0.8,1.5-1.6,2.1-2.5
		c0.6-0.9,1.2-1.8,1.9-2.7c0.7-0.9,1.4-1.8,2.1-2.7c0.7-0.9,1.6-1.7,2.6-2.5c0.3,0.5,0.5,1,0.7,1.3c0.2,0.4,0.3,0.8,0.3,1.1l-3,4.4
		c0-0.3-0.2-0.5-0.5-0.8c-0.3-0.3-0.5-0.4-0.7-0.4c-0.3,1.3-0.7,2.3-1.3,3.1c-0.6,0.8-1.2,1.5-1.8,2.1c-0.6,0.6-1.2,1.3-1.8,2.1
		c-0.6,0.8-1,1.8-1.3,3.1v0.4c0,0.1,0.1,0.2,0.4,0.2l6.6-9l-2.5,3.6c-1.2,1.8-2.5,3.6-3.9,5.4c-1.4,1.8-2.6,3.5-3.8,4.9
		c-1.2,1.4-1.9,2.1-2.2,2.1l-0.1-0.2c-0.6-0.3-1.2-0.4-1.9-0.4s-1.3-0.1-2-0.2c0-1-0.1-2.1-0.3-3.2c-0.2-1.1-0.3-2-0.3-2.7
		c0-0.6,0.2-1,0.7-1c0-0.4-0.2-1-0.5-1.8c-0.3-0.8-0.6-1.8-1-2.9c-0.4-1.1-0.7-2.2-1-3.4c-0.3-1.2-0.5-2.4-0.5-3.7
		c0-1.3,0.4-2.5,1.1-3.7c0.7-1.2,1.6-2.3,2.6-3.1c1-0.9,2-1.7,2.9-2.3c1-0.6,1.7-1.1,2.1-1.3c0.3,0,0.5-0.3,0.4-0.9
		c-0.1-0.6,0-0.9,0.4-0.9l2.4,1.1c-0.2,0.6-0.7,1.7-1.6,3.1c-0.9,1.5-1.6,2.5-2,3.1c0.6-0.6,1.3-1.6,2.2-2.9
		c0.8-1.3,1.5-2.2,1.9-2.9c0.4,0.3,0.8,0.5,1.2,0.8c0.3,0.3,0.6,0.4,0.8,0.4l0.4-0.6c0.6,0,1.3,0.2,2,0.6c0.7,0.4,1.4,0.8,2,1.3
		c0.6,0.5,1.1,1.1,1.6,1.7C167.4,177.3,167.6,177.8,167.6,178.1z"/>
</g>
<g class="st0">
	<path class="st10" d="M441.3,187c-6.7,0-13.4,0.3-20.1,0.9c-6.6,0.6-13.3,0.9-19.9,0.9c1.1,0.1,2.2,0.2,3.3,0.3
		c1.1,0.1,2.2,0.1,3.5,0.1c4,0,8-0.1,12-0.3c4-0.2,8-0.3,12-0.3h3.9c1.3,0,2.7,0.1,4.1,0.2c-1.2,1.1-2.5,2-3.9,2.5
		c-1.4,0.5-2.7,0.9-4.1,1c-1.4,0.2-2.8,0.3-4.2,0.3s-2.9,0.1-4.3,0.2l-1.2-2.3c-2,0.5-4,0.8-6,1c-2,0.1-4,0.2-6,0.2l-11.7-0.2
		l0.1,1.7l21.9-0.2c-7.4,0.6-14.7,1-21.9,1.1c0.1,1.7,0.2,3.3,0.3,4.9c0.1,1.6,0.2,3.2,0.4,4.9l-1.6,0.6c0.7,4.3,1.2,9.1,1.5,14.2
		c0.3,5.2,0.6,10.4,0.9,15.7c0.3,5.3,0.6,10.6,1.1,15.7c0.5,5.2,1.2,9.8,2.2,14l0.4-0.6c-0.5-4.3-1-9-1.4-14
		c-0.4-5-0.9-10.2-1.2-15.5c-0.4-5.3-0.8-10.5-1.1-15.6c-0.3-4.8-0.5-9.4-0.7-13.5c0.3,6.7,0.9,13.8,1.6,21.2
		c0.8,7.5,1.6,15.1,2.5,22.8c0.9,7.7,1.7,15.3,2.6,22.8c0.8,7.5,1.6,14.7,2.3,21.6c0.2,2.2,0.4,4.5,0.7,7s0.4,5,0.4,7.5v2.3
		c0,0.9-0.1,1.7-0.3,2.5c-0.6,0-1.2,0.2-1.8,0.5c-0.6,0.3-1.2,0.5-1.8,0.5c-1,0-1.6-0.7-1.8-2.1c-0.2-1.4-0.3-2.6-0.3-3.6h-1.2
		c-0.1,0.8-0.2,1.7-0.5,3c-0.2,1.2-0.5,2.4-0.9,3.5c-0.4,1.1-0.9,2.1-1.4,2.9c-0.6,0.8-1.2,1.1-1.9,1.1c-0.9,0-1.7-0.9-2.4-2.7
		c-0.7-1.8-1.3-4.1-1.9-6.9c-0.6-2.8-1-5.9-1.4-9.3c-0.4-3.4-0.7-6.6-1-9.7c-0.3-3.1-0.6-5.9-0.8-8.5c-0.2-2.5-0.4-4.4-0.6-5.5
		c-0.9-5.3-1.7-11.2-2.4-17.6c-0.7-6.4-1.4-12.8-1.9-19.3s-0.9-12.9-1.2-19.4c-0.3-6.4-0.5-12.4-0.5-18c0-0.9,0-1.7,0.1-2.6
		c0-0.8,0.1-1.7,0.1-2.6v-1.1c0-0.5,0-1-0.1-1.5c-5.2-0.1-10.1-0.5-14.7-1c-4.6-0.6-9.8-1.4-15.5-2.4c0.1-0.8,0.1-1.6,0.1-2.5
		c0-0.9,0.1-1.7,0.2-2.5c0.1-0.8,0.3-1.4,0.7-2c0.3-0.6,0.9-0.9,1.6-0.9c0.5,0,1.1,0.1,1.8,0.4l0.4-1.7c-1-0.6-2.3-1.7-3.7-3.1
		c-1.4-1.4-2.1-3.1-2.1-5c0-1.1,0.3-2,0.9-2.6c0.6-0.6,1.4-1,2.2-1.2c0.9-0.3,1.7-0.4,2.6-0.5c0.9-0.1,1.5-0.1,2-0.1
		c3.1,0,6.3,0.3,9.4,0.8c3.1,0.5,6.2,0.8,9.4,0.8c8,0,15.9,0.2,23.7,0.5c7.9,0.3,15.8,0.5,23.7,0.5c1.6,0,3.1-0.3,4.7-1
		c1.5-0.6,3.1-1,4.7-1c0.6,0,1.2,0.3,1.6,0.8c0.5,0.5,0.7,1.3,0.7,2.3c-2.4,0.6-4.8,1.1-7.2,1.5c-2.2,0.3-4.4,0.5-6.7,0.8
		c2.3,0,4.5-0.1,6.7-0.4c2.4-0.3,4.8-0.5,7.2-0.8v3.6l2.4-0.6c0.7,0.3,1.4,0.7,2,1.4c0.6,0.7,0.9,1.7,0.9,3c0,1.1-0.2,2.3-0.7,3.3
		C442.3,185.3,441.8,186.3,441.3,187z M395.3,194.1c0.2,3.7,0.4,7.8,0.7,12.2c0.3,4.5,0.6,9,1,13.5c0.3,4.6,0.7,9.1,1.1,13.5
		c0.4,4.4,0.8,8.4,1.1,12.1c-0.3-3.6-0.5-7.6-0.9-12c-0.3-4.5-0.6-9-0.9-13.5c-0.3-4.6-0.5-9.1-0.7-13.5c-0.2-4.5-0.3-8.5-0.3-12.2
		H395.3z M395.8,193.1h0.7v-1.7h-0.7V193.1z M419.1,174.6h-7.2c-2.2,0-4.4-0.1-6.6-0.2c1,0.3,2.1,0.5,3,0.8c1.2,0.4,2.6,0.6,4.1,0.6
		c1,0,2.2-0.1,3.3-0.4C417,175.1,418.1,174.9,419.1,174.6z"/>
</g>
<g class="st0">
	<path class="st11" d="M466.1,316.4c0.3-3.6,0.7-7.7,1-12.5c0.3-4.8,0.6-9.6,0.9-14.4c0.3-4.8,0.5-9.6,0.8-14.2
		c0.3-4.6,0.5-8.7,0.8-12.1c-0.4,3.4-0.8,7.4-1.2,11.8c-0.4,4.5-0.7,9-1,13.7c-0.4,4.7-0.7,9.4-1,14c-0.4,4.6-0.7,8.8-0.9,12.5
		c-1.3-1.3-2-3-2-5.2c0-2.5,0-4.7,0.1-6.4c0.1-1.7,0.2-3.7,0.4-6l1.4-1.9c-0.1-0.6-0.1-1.2-0.1-1.7v-1.9c0-2.9,0.2-6.3,0.7-10
		c0.4-3.8,0.9-7.6,1.5-11.5c0.6-3.9,1.1-7.6,1.5-11.3c0.4-3.6,0.7-6.8,0.7-9.4l-1.6-0.6c-0.2,3.1-0.4,6.5-0.8,10.4
		c-0.4,3.9-0.7,7.9-1.1,12c-0.4,4.1-0.8,8.2-1.1,12.3c-0.2,2.2-0.4,4.2-0.5,6.1c0.2-3.6,0.4-7.4,0.7-11.4c0.4-5.9,0.9-11.7,1.4-17.5
		c0.5-5.8,0.9-11.5,1.4-17.1c0.4-5.6,0.9-10.7,1.3-15.5c0-1.9,0.3-4,1-6.2c0.7-2.2,1.1-4.5,1.4-7c0.5,0.3,1,0.4,1.3,0.4h0.9
		c0.9,0,1.4,0.3,1.7,0.9c0.3,0.6,0.4,1.4,0.4,2.4v1l1.2,0.6c0.7-1.9,1.5-3.4,2.5-4.6c1-1.1,1.9-1.7,2.9-1.7c2.1,0,3.1,3.2,3.1,9.7
		c0,3.4-0.2,7.1-0.7,11c-0.5,3.9-0.7,7.7-0.7,11.4v2.5c0,4.1-0.3,8.5-0.9,13.3c-0.6,4.8-1.3,9.6-2,14.5c-0.7,4.9-1.4,9.6-2,14.2
		c-0.6,4.6-0.9,8.8-0.9,12.6c0,0.9,0,1.8,0.1,2.9c0.1,1,0.1,2,0.1,2.9c0,1.9-0.2,3.1-0.7,3.5c-0.5,0.4-1.1,0.7-1.8,0.7
		c0-1.7,0-3.7-0.1-6.1c-0.1-2.4-0.1-4.6-0.1-6.5c-0.2,1.4-0.3,3.3-0.3,5.7c0,2.4-0.1,4.7-0.3,6.9h-2v2.3c-0.8,2-1.8,3.1-3.1,3.1
		c-0.6,0-1.3-0.3-2.1-0.8C467.2,317.6,466.6,317,466.1,316.4z M464.2,294.8c0.1-1.4,0.2-2.8,0.3-4.2
		C464.3,292.2,464.3,293.6,464.2,294.8z M493.1,169.8c-1.5,1.3-2.8,2.9-4.1,5c-1.2,2-2.5,4-3.8,5.9c0.8-0.8,1.5-1.6,2.1-2.5
		c0.6-0.9,1.2-1.8,1.9-2.7c0.7-0.9,1.4-1.8,2.1-2.7c0.7-0.9,1.6-1.7,2.6-2.5c0.3,0.5,0.5,1,0.7,1.3c0.2,0.4,0.3,0.8,0.3,1.1l-3,4.4
		c0-0.3-0.2-0.5-0.5-0.8c-0.3-0.3-0.5-0.4-0.7-0.4c-0.3,1.3-0.7,2.3-1.3,3.1c-0.6,0.8-1.2,1.5-1.8,2.1c-0.6,0.6-1.2,1.3-1.8,2.1
		c-0.6,0.8-1,1.8-1.3,3.1v0.4c0,0.1,0.1,0.2,0.4,0.2l6.6-9l-2.5,3.6c-1.2,1.8-2.5,3.6-3.9,5.4c-1.4,1.8-2.6,3.5-3.8,4.9
		c-1.2,1.4-1.9,2.1-2.2,2.1l-0.1-0.2c-0.6-0.3-1.2-0.4-1.9-0.4s-1.3-0.1-2-0.2c0-1-0.1-2.1-0.3-3.2c-0.2-1.1-0.3-2-0.3-2.7
		c0-0.6,0.2-1,0.7-1c0-0.4-0.2-1-0.5-1.8c-0.3-0.8-0.6-1.8-1-2.9c-0.4-1.1-0.7-2.2-1-3.4c-0.3-1.2-0.5-2.4-0.5-3.7
		c0-1.3,0.4-2.5,1.1-3.7c0.7-1.2,1.6-2.3,2.6-3.1c1-0.9,2-1.7,2.9-2.3c1-0.6,1.7-1.1,2.1-1.3c0.3,0,0.5-0.3,0.4-0.9
		c-0.1-0.6,0-0.9,0.4-0.9l2.4,1.1c-0.2,0.6-0.7,1.7-1.6,3.1c-0.9,1.5-1.6,2.5-2,3.1c0.6-0.6,1.3-1.6,2.2-2.9
		c0.8-1.3,1.5-2.2,1.9-2.9c0.4,0.3,0.8,0.5,1.2,0.8c0.3,0.3,0.6,0.4,0.8,0.4l0.4-0.6c0.6,0,1.3,0.2,2,0.6c0.7,0.4,1.4,0.8,2,1.3
		c0.6,0.5,1.1,1.1,1.6,1.7C492.9,169,493.1,169.5,493.1,169.8z"/>
</g>
<g class="st0">
	<path class="st12" d="M575.5,310.9c0-4.2-0.2-8.5-0.6-12.8c-0.4-4.3-0.6-8.5-0.6-12.6v-5.2c-0.4-5-1-10.8-1.6-17.5
		c-0.6-6.7-1.4-13-2.4-19c-1-6-2.1-11.1-3.5-15.3c-1.4-4.2-3.1-6.3-5.2-6.3c-3.1,0-6.2,2.1-9.4,6.2c-3.2,4.1-5.9,10.1-8.1,18
		c-1,4.5-1.8,9.2-2.2,14.1s-0.7,10.2-1,15.6c-0.3,5.5-0.5,11.1-0.7,16.9c-0.2,5.8-0.6,11.8-1.2,18c-0.2,0.6-0.3,1.4-0.5,2.3
		c-0.1,0.9-0.2,1.7-0.3,2.3h-16.1v-15.5c-0.1-1.3-0.2-2.8-0.3-4.6c-0.1-1.8-0.2-3.6-0.3-5.4c-0.1-1.8-0.2-3.7-0.3-5.4
		c-0.1-1.8-0.2-3.3-0.3-4.6c0-10.3-0.3-20.6-0.9-30.9c-0.6-10.3-0.9-20.8-1.1-31.5l3-1c0.3,0,0.5,0.4,0.9,1.1c0.3,0.7,0.6,2,0.8,3.9
		c0.2,1.9,0.4,4.6,0.7,8.1c0.2,3.5,0.4,8,0.6,13.6c0.1,0,0.2-0.1,0.4-0.2c0.3-0.3,0.6-0.4,0.8-0.4c0-0.9,0-1.8-0.1-2.7
		c0-0.9-0.1-1.8-0.1-2.7c0-10.9,0.5-19.4,1.5-25.3c1-5.9,1.9-8.9,2.6-8.9c0.5,0,1,1.7,1.6,5c0.5,3.3,1.1,8.5,1.7,15.6
		c1.5-3.4,3.2-6.7,5.1-9.9c1.9-3.2,4.1-5.9,6.5-8.3c2.4-2.4,5-4.2,7.8-5.6c2.8-1.4,5.9-2.1,9.2-2.1c2.9,0,5.4,0.9,7.6,2.7
		c2.2,1.8,4.1,4.1,5.8,7c1.7,2.9,3.1,6.1,4.3,9.7c1.2,3.6,2.2,7.3,3.1,10.9c0.9,3.6,1.6,7.1,2.2,10.5c0.6,3.4,1.1,6.2,1.5,8.5
		c0,0.3,0,0.5,0.1,0.9c0.1,0.3,0.2,0.6,0.3,0.9c1-4.1,2.4-8.7,3.9-14c1.6-5.3,3.5-10.3,5.9-15c2.4-4.7,5.1-8.7,8.3-11.9
		c3.2-3.2,6.9-4.9,11.1-4.9c4.1,0,7.6,1.6,10.5,4.8c2.9,3.2,5.3,7.3,7.3,12.2c2,5,3.5,10.5,4.7,16.5c1.2,6,2.1,12,2.7,17.7
		c0.6,5.8,1,11.1,1.2,15.9c0.2,4.8,0.3,8.5,0.3,11.1c0,4.1-0.1,7.1-0.3,9c-0.2,1.9-0.8,2.9-1.8,2.9c-0.2-5.1-0.3-10.2-0.5-15.5
		c-0.1-5.2-0.4-10.5-0.8-15.7c-0.4-5.3-0.9-10.5-1.6-15.6c-0.7-5-1.6-9.9-2.8-14.7c2.2,10.1,3.5,20.1,3.8,30.2
		c0.4,10.2,0.8,20.2,1,30.2c-0.6-0.9-1.1-1.3-1.4-1.3c-0.3,0-0.4,0.3-0.5,0.8v5.7c0,1.7,0,3.4,0.1,5.2c0,1.8,0.2,3.3,0.3,4.6
		c-0.2,5.2-0.3,8.9-0.5,11.2c-0.1,2.2-0.5,3.7-1,4.3c-0.7,0-1.3-0.6-1.8-1.7c-0.5-1.1-1-2.6-1.5-4.4c-0.5-1.8-0.9-3.8-1.4-5.9
		c-0.4-2.2-0.9-4.3-1.3-6.3v-5.2c0-5.6,0-11.5-0.1-17.6c0-6.1-0.2-12.1-0.5-17.8c-0.3-5.8-0.8-11.3-1.4-16.5
		c-0.7-5.2-1.5-9.8-2.6-13.8c-1.1-4-2.5-7.2-4.2-9.4c-1.7-2.3-3.8-3.4-6.2-3.4c-2,0-3.8,0.8-5.5,2.3c-1,0.9-1.9,2-2.9,3.4
		c1-1.3,2-2.4,3-3.2c1.7-1.5,3.5-2.3,5.4-2.3h0.5c2.2,0,4,1.2,5.6,3.7c1.5,2.5,2.8,5.8,3.8,9.8c1,4.1,1.8,8.7,2.3,13.9
		c0.5,5.2,0.9,10.6,1.2,16.2c0.3,5.6,0.5,11.2,0.6,16.7c0.1,5.5,0.2,10.6,0.3,15.2c-0.5-3.6-1-7.8-1.4-12.7
		c-0.4-4.9-0.8-10-1.2-15.4c-0.4-5.3-0.9-10.6-1.4-15.8c-0.6-5.2-1.3-9.9-2.2-14c-0.9-4.1-2-7.5-3.3-10c-1.3-2.5-2.9-3.8-4.8-3.8
		c-0.8,0-1.5,0.1-2.1,0.3c-0.6,0.2-1.4,0.9-2.4,2l-1.3-1c-3,3.8-5.5,8.9-7.5,15.3c-2,6.4-3.7,13.2-5.1,20.5
		c-1.4,7.3-2.6,14.8-3.5,22.4c-1,7.6-1.9,14.7-2.8,21.2v7.3c1.4-10,2.7-19.9,3.9-29.7s2.9-19.2,5.2-28.3c-1.7,7.9-3.1,16-4.1,24.4
		c-1,8.4-2.1,17-3.3,25.8c0,0.9-0.1,2.1-0.4,3.6s-0.7,3.8-1.3,6.9l-14.4-2.1L575.5,310.9z M577,301.4c-0.3-3.4-0.5-7.8-0.7-13.2
		c-0.2-5.3-0.5-11-0.9-17c-0.4-6-0.8-12-1.4-18.1c-0.6-6.1-1.5-11.6-2.6-16.5c-1.1-4.9-2.4-8.9-4.1-11.9c-1.6-3.1-3.6-4.6-6.1-4.6
		c-0.8,0-1.6,0.3-2.5,0.8c-0.9,0.5-1.7,1.1-2.5,1.7c0.3-0.1,0.5-0.2,0.7-0.2h0.1c0,0.1-0.1,0.4-0.4,0.8c2.4-1.1,4.2-1.7,5.5-1.7
		c1.7,0.9,3.1,2.9,4.5,5.9c1.3,3.1,2.4,6.7,3.3,11c0.9,4.3,1.7,8.9,2.4,13.8c0.7,5,1.2,9.7,1.5,14.2c0.3,4.5,0.6,8.6,0.8,12.1
		c0.2,3.6,0.3,6.1,0.3,7.6c0.3,3.8,0.5,7.6,0.7,11.3c0.2,3.7,0.3,7.4,0.3,11.1L577,301.4z M577,273.7c0.2,2,0.3,4,0.3,5.9
		c0,1.9,0.1,3.7,0.2,5.3l0.4,9.2l0.1-1c-0.1-1.8-0.1-3.5-0.1-5.2v-4.8L577,273.7z M588,250.1c0,0.1,0.1,0.7,0.3,1.7
		c0.2,0.9,0.3,1.5,0.4,1.7c0.3-1.3,0.8-3.3,1.7-6.2c0.9-2.9,1.8-5.9,2.9-9.2s2.1-6.3,3-9.1c0.3-1.1,0.7-2.2,0.9-3.1
		c-0.3,0.8-0.6,1.6-1,2.5c-1,2.5-2,5.2-3.1,7.9c-1.1,2.7-2.2,5.4-3.1,7.9C588.9,246.9,588.3,248.8,588,250.1z M598.3,247.8
		c-1.7,6.5-3.3,13.3-4.6,20.5c-1.3,7.2-2.5,14.6-3.5,22.2l0.3,3.1c1.1-9.2,2.4-18.4,3.9-27.7c1.4-8.1,3.2-15.8,5.4-23.1
		c-0.1,0.4-0.2,0.7-0.3,1C599.1,245,598.7,246.4,598.3,247.8z M597.8,224.3c-0.2,0.3-0.3,0.6-0.4,1.1
		C597.6,225.1,597.7,224.7,597.8,224.3z M600.6,252c0.4-1.8,0.8-3.5,1.2-5.2c0.4-1.7,0.8-2.8,1-3.4c0,0.3-0.1,0.8-0.3,1.5
		c-0.2,0.9-0.5,2.2-1,4L600.6,252z M620,208.3c-1.6-0.6-3.1-1-4.5-1h-1.4c-0.6,0-0.9,0.1-0.9,0.2h0.1c1.4,0.5,2.7,0.8,3.9,0.8H620z
		 M629,216.3c-0.4-0.8-1-1.5-1.7-2.3c-0.5-0.5-1-1-1.4-1.3C626.9,213.7,628,214.9,629,216.3z"/>
</g>
<g class="st0">
	<path class="st13" d="M713.9,316.3c-3.3,1.7-5.9,2.6-7.6,2.8c-1.7,0.2-3.3,0.3-4.6,0.5c-4.9,0-9.3-1.3-13.2-4
		c-3.9-2.7-7.3-6.3-10.1-10.9c-2.8-4.6-5-10-6.5-16.1c-1.5-6.2-2.3-12.8-2.3-19.8c0-4.1,0.3-8.3,0.8-12.7s1.3-8.7,2.4-13
		c1-4.3,2.4-8.2,4.1-11.9c1.6-3.7,3.5-7,5.6-9.9c-2.3,2.7-4.2,5.9-5.8,9.5c-1.7,3.7-3.1,7.7-4.2,11.9c-1.1,4.3-2,8.7-2.5,13.2
		c-0.5,4.5-0.8,8.9-0.8,13.1c0,5.3,0.6,11,1.8,17.1c1.2,6,3.1,11.6,5.7,16.8s6,9.4,10.2,12.9c4.1,3.4,9.2,5.2,15.1,5.2
		c2.8,0,5.7-0.6,8.8-1.7c-3.3,3.2-7,4.8-11.1,4.8c-3.3,0-6.4-0.7-9.4-2.2c-2.9-1.5-5.6-3.5-8.1-6.1c-2.5-2.6-4.7-5.7-6.8-9.3
		c-2-3.6-3.7-7.4-5.1-11.5l1.2-1.5c-1.5-4.3-2.6-8.7-3.2-13c-0.7-4.3-1-8.7-1-13.2c0-6.5,0.6-12.7,1.9-18.7c1.3-6,2.9-11.6,5-17
		l3.1-6.3c0.5-1.4,1.3-2.8,2.3-4.2c1-1.4,2.1-2.8,3.3-4.1c1.2-1.3,2.5-2.5,3.9-3.6c1.4-1.1,2.6-2.1,3.9-3c3.1-2.3,6.3-4.4,9.4-6.2
		c3.1-1.8,6.8-3.2,11-4.1l-0.5-0.6c-8,1.1-14.9,4-20.4,8.5c-5.6,4.5-10.1,10-13.6,16.5c-3.5,6.5-6,13.6-7.6,21.3
		c-1.6,7.7-2.4,15.2-2.4,22.6c0,3.9,0.2,7.9,0.7,11.9c0.5,4,1.2,8,2.2,11.9c-2.2-7.6-3.3-15.7-3.3-24.2c0-8.4,1-16.7,2.9-25
		c1.9-8.3,4.9-15.9,9-22.9c5.2-7,11-12.4,17.2-16.1c6.2-3.8,12.2-5.6,18-5.6c1.8,0,3.7,0.4,5.6,1.3c1.9,0.9,3.7,2.3,5.2,4.1
		c1.6,1.8,2.9,4.2,3.9,7.2c1,2.9,1.5,6.5,1.5,10.7c0,3.4-0.6,7.6-1.7,12.6c-1.1,5-2.8,9.8-5,14.4c-2.2,4.6-5,8.6-8.3,11.8
		c-3.3,3.2-7.2,4.9-11.5,4.9h-4.3c-3.2-1-6.2-2.2-8.8-3.5c-2.7-1.3-5.2-2.4-7.5-3.1c-0.3,2-0.5,4-0.6,5.8c0,1.8-0.1,3.7-0.1,5.4
		c0,3.7,0.3,7.3,0.9,10.8c0.6,3.5,1.5,6.7,2.7,9.6c1.2,2.9,2.8,5.4,4.7,7.3c1.9,2,4.2,3.2,6.9,3.7c1.7,0.5,3.1,0.8,4.3,0.9
		c1.2,0.1,2.2,0.1,3.1,0.2c0.8,0.1,1.4,0.3,1.8,0.6c0.4,0.3,0.6,0.9,0.6,1.8c-0.9,0.4-1.8,0.6-2.7,0.8c-0.9,0.1-1.9,0.2-2.8,0.2
		c-3.1,0-5.8-0.7-8.3-2.2c-2.4-1.5-4.5-3.1-6.3-5.1c2,2.9,4.4,5,7.2,6.2c2.8,1.2,5.5,1.8,8.3,1.8c1.5,0,3-0.2,4.6-0.6
		c-0.2,0.8-0.3,1.2-0.3,1.3c0,0.8,0.2,1.3,0.7,1.5c0.3-0.1,1-0.5,1.8-1.1c0.9-0.6,1.8-1.1,2.7-1.7c0.9-0.6,1.8-1.1,2.7-1.5
		c0.9-0.4,1.5-0.7,1.8-0.7c0.4,0,0.8,0.1,1.2,0.3c0.3,0.2,0.5,0.9,0.5,2.2c0,1.3-0.3,2.8-0.9,4.6
		C716.1,312.7,715.2,314.5,713.9,316.3z M686.1,298.1c-0.6-1-1.2-2-1.8-3.1c-0.5-0.9-1-1.8-1.3-2.7
		C683.8,294.6,684.8,296.5,686.1,298.1z M689.8,254.8c0.2-0.3,0.3-0.6,0.3-1.1c0-0.5,0.1-0.9,0.1-1.1l-6.2-3.2l-0.7,2.7L689.8,254.8
		z M695.8,240.7l2.9,0.8c1,0.3,1.8,0.4,2.6,0.4c0.9,0,1.9-0.4,3.1-1.2c1.2-0.8,2.4-2,3.5-3.5c1.2-1.5,2.2-3.4,3.1-5.7
		c0.9-2.3,1.6-4.9,2-7.8l0.3-1.1c-1.2,0-3.1,0.4-5.5,1.3c-2.4,0.9-5,2.1-7.6,3.5c-2.6,1.5-5.1,3.2-7.3,5.2c-2.3,2-3.8,4.1-4.7,6.4
		c1.3,0.4,2.6,0.7,3.9,1.1C693.4,240.1,694.6,240.4,695.8,240.7z"/>
</g>
<linearGradient id="SVGID_2_" gradientUnits="userSpaceOnUse" x1="804.9002" y1="158.4563" x2="819.679" y2="121.8776" gradientTransform="matrix(1 0 0 -1 0 420)">
	<stop  offset="7.398994e-02" style="stop-color:#58595B;stop-opacity:0"/>
	<stop  offset="0.4534" style="stop-color:#58595B;stop-opacity:0.5"/>
	<stop  offset="0.8743" style="stop-color:#000000"/>
</linearGradient>
<path class="st14" d="M801.7,300c-2.4-10.7-4.8-21.4-7.1-32.2c2-2.7,3.9-3.8,5.3-4.3c2.4-0.9,3.2-0.1,5.9-1.1
	c2.4-0.9,2.2-1.8,5.3-3.3c2.2-1.1,4.2-1.5,5.5-1.9c2-0.5,3.7-0.6,5-0.7c3.5,11.8,7.1,23.6,10.6,35.5c-2,1.9-3.8,2.6-4.9,2.9
	c-2.5,0.7-3.2-0.3-6.4,0.4c-2.5,0.5-2.4,1.1-5.1,1.6c-2.9,0.5-3.3-0.2-5,0.6c-2.2,0.9-2.3,2.4-4.2,3.1
	C805.6,301,804,301.2,801.7,300z"/>
<linearGradient id="SVGID_3_" gradientUnits="userSpaceOnUse" x1="744.9449" y1="145.6358" x2="764.293" y2="97.7474" gradientTransform="matrix(1 0 0 -1 0 420)">
	<stop  offset="7.398994e-02" style="stop-color:#FFF200;stop-opacity:0"/>
	<stop  offset="0.4534" style="stop-color:#FFF200;stop-opacity:0.5"/>
	<stop  offset="0.8743" style="stop-color:#000000;stop-opacity:0.7"/>
</linearGradient>
<path class="st15" d="M794.7,271.8c-2.4-1.8-7.2-4.9-14.5-6c-8-1.2-14.8,0.6-18.1,1.7c-2.2,2.6-5.6,6.4-9.5,11.3
	c-9.3,11.4-11.2,14.8-14.9,18.6c-4.8,5-13.2,11.1-28.3,14.7c10.4,2.2,22.9,3.9,37.3,4.1c8.4,0.2,16.2-0.2,23.4-0.8
	c1.2,0.3,9.6,2.2,18.7-3.4c9.1-5.6,11.6-14.2,11.9-15.4C798.7,288.2,796.7,280,794.7,271.8z"/>
<path class="st13" d="M760.2,316.8c-3.6-3.9-4.4-7.5-4.4-10c-0.1-4,1.7-5.3,1.1-9.1c-0.8-4.6-3.7-4.7-3.5-8.4
	c0.2-3.3,2.5-4.3,3.3-8.4c0.6-3.1-0.1-5.7-0.9-7.4c-7.5,5.8-13.3,10.7-17.1,14.2c-6.3,5.6-9,8.6-14.9,13.4
	c-6,4.9-11.2,8.4-14.6,10.6c6.5,1.8,14.3,3.4,23.1,4.4C742.6,317.1,752.1,317.2,760.2,316.8z"/>
<linearGradient id="SVGID_4_" gradientUnits="userSpaceOnUse" x1="729.4438" y1="135.6303" x2="745.1212" y2="96.8274" gradientTransform="matrix(1 0 0 -1 0 420)">
	<stop  offset="7.398994e-02" style="stop-color:#EE2A7B;stop-opacity:0"/>
	<stop  offset="0.4534" style="stop-color:#EE2A7B;stop-opacity:0.5"/>
	<stop  offset="0.8743" style="stop-color:#000000;stop-opacity:0.7"/>
</linearGradient>
<path class="st16" d="M760.5,316.9c-3.6-3.9-4.4-7.5-4.4-10c-0.1-4,1.7-5.3,1.1-9.1c-0.8-4.6-3.7-4.7-3.5-8.4
	c0.2-3.3,2.5-4.3,3.3-8.4c0.6-3.1-0.1-5.7-0.9-7.4c-7.5,5.8-13.3,10.7-17.1,14.2c-6.3,5.6-9,8.6-14.9,13.4
	c-6,4.9-11.2,8.4-14.6,10.6c6.5,1.8,14.3,3.4,23.1,4.4C742.9,317.3,752.4,317.3,760.5,316.9z"/>
<g class="st0">
	<path class="st17" d="M239.7,198.4c1.9-3.5,4-6.7,6.1-9.7c2.2-3,4.2-6.1,6.2-9.4l0.1,1.5c0,0.8-0.2,1.6-0.5,2.5
		c-0.3,0.8-0.8,1.7-1.2,2.5c-0.5,0.8-1,1.7-1.5,2.5l-1.2,1.8l-0.9-1c-0.5,1.3-1.2,2.6-2.1,4c-0.9,1.3-1.8,2.7-2.6,4.1
		c-0.9,1.4-1.6,2.8-2.2,4.2c-0.6,1.4-0.9,2.8-0.9,4.2l0.5,0.3c0.8-3.1,2-5.9,3.5-8.4c1.4-2.3,2.9-4.5,4.3-6.7
		c-0.4,0.7-1,1.6-1.7,2.8c-0.8,1.4-1.7,2.9-2.5,4.5c-0.9,1.6-1.6,3.2-2.3,4.7c-0.7,1.5-1,2.8-1,3.7c0.5,0.3,1,0.6,1.2,0.9
		c0.3,0.3,0.4,0.9,0.4,1.8c0,0.5,0,1.1-0.1,1.9c-0.1,0.7-0.4,1.1-0.9,1.1l-0.7-0.1v1.6c0.8,0.8,1.4,1.7,1.9,2.6
		c0.5,0.9,0.8,2.1,0.8,3.5c0,1.6-0.4,2.6-1.3,3c-0.9,0.4-1.7,0.6-2.5,0.6c-1.4,0-2.9-0.4-4.3-1.1c-1.4-0.7-2.7-1.8-3.7-3.1
		c-1.1-1.3-2-2.9-2.6-4.8c-0.7-1.8-1-3.9-1-6.2c0-3.5,0.4-6.8,1.2-9.9c0.8-3.1,2.1-5.9,3.7-8.4c0.4-0.6,1.2-1.8,2.3-3.7
		c1.1-1.8,2.2-3.7,3.4-5.6c1.2-1.9,2.3-3.6,3.3-5.2c1-1.5,1.7-2.3,2.2-2.3l1.3,0.7c-1.2,3.1-2.7,5.9-4.5,8.4
		c-1.8,2.5-3.6,4.9-5.3,7.3c1.9-2.3,3.7-4.7,5.5-7.2c1.7-2.5,3.3-5.2,4.8-8.1l1.5,1.2c0.1-0.8,0.5-1.3,1-1.6c0.5-0.2,1-0.4,1.4-0.4
		c0.8,0,1.5,0.4,2,1.3c0.5,0.8,0.8,1.8,1,2.9c-0.2,0.8-0.8,2.1-1.9,3.8c-1.1,1.7-2.2,3.7-3.5,5.8c-1.3,2.1-2.6,4.2-3.8,6.2
		C241.2,195.4,240.3,197.1,239.7,198.4z"/>
</g>
<g class="st0">
	<path d="M44.4,387.9l0.5-23.5c0-10.4-0.9-18.3-2.6-23.5c1.1-1,2.4-1.5,4-1.5c2.6,0,4.9,0.4,7,1.1c2.1,0.7,3.8,1.7,5.2,2.9
		c2.7,2.5,4.1,5.4,4.1,8.6s-1.1,6.1-3.3,8.7c-2.2,2.6-5.4,4.7-9.7,6.1l0.8,20.5c0,1.8-1.2,2.7-3.5,2.7c-0.8,0-1.5-0.2-1.9-0.7
		S44.4,388.5,44.4,387.9z M49.3,363.7c5.2-3.2,7.9-6.9,7.9-11.2v0c0-3.2-0.9-5.4-2.7-6.6c-1.2-0.8-3.2-1.8-6-3.1
		c0,2.3,0.2,5.8,0.5,10.4C49.1,357.9,49.3,361.4,49.3,363.7z"/>
	<path d="M85,389.1l-3.9,0l-4.5,0.1c-1.9,0-3.2-0.4-3.9-1.2c0-0.6,0.1-1.1,0.4-1.5c0.3-0.4,0.8-0.5,1.6-0.5h2.9l0.2-0.9l-0.7-14
		l0.6-14.7c0-2.5-0.2-4.8-0.5-7c-1.5,0-2.8,0-4,0c-1.2,0-2.1-0.1-2.7-0.4c-0.6-0.2-0.9-0.7-0.9-1.4c0-1,1.9-1.5,5.6-1.5h0.4
		c8.9,0,13.4,0.8,13.4,2.2c0,0.2-0.2,0.6-0.6,1.2h-5.3c0.3,1.6,0.4,3.5,0.4,5.7l-0.6,12.6l0.8,14v2c0,0.4-0.1,1-0.4,1.8h4.4
		c2.8,0,4.3,0.5,4.3,1.6c0,0.5-0.2,0.9-0.7,1.3c-0.5,0.3-1,0.5-1.7,0.5L85,389.1z"/>
	<path d="M117,386.7c2.1,0,3.1,0.5,3.1,1.4c0,1.7-1.9,2.6-5.8,2.6c-1.6,0-3.2-0.1-4.9-0.4c-1.7-0.3-2.9-0.6-3.8-0.9
		c-4.6-1.9-6.9-7-6.9-15.5l-0.1-3.9c0-12.6,2.4-20.1,7.3-22.4c2.5-1.2,6-1.7,10.5-1.7c0.7,0,1.4,0.2,2.1,0.5
		c0.6,0.3,0.9,0.7,0.9,1.2v0.3c-0.6,1-2.3,1.5-5,1.5l-1.9-0.1c-1.2,0-2.2,0.4-3.1,1.2c-0.9,0.8-1.6,1.7-2.1,2.9
		c-0.5,1.1-0.9,2.4-1.2,3.7c-0.5,2.2-0.7,4.2-0.7,6.1v0.3l-0.7,12.7c0,2.7,0.2,4.5,0.7,5.6c0.5,1,0.9,1.9,1.4,2.5
		c0.5,0.6,1.1,1.2,1.8,1.6c1.6,0.9,3.6,1.4,6,1.4C115.6,387.3,116.3,387.1,117,386.7z"/>
	<path d="M136.4,348.4l-0.9,12v3.4c0.2-0.2,1.5-2,3.8-5.2c5.9-8,9.5-12,11-12c1,0,1.9,0.2,2.8,0.5c0.8,0.3,1.2,0.7,1.2,1.3
		c0,0-1.8,1.9-5.3,5.6c-3.5,3.7-5.5,5.8-5.9,6.3l-0.2,3.9c0,1.9,1.2,5.4,3.6,10.6c2.4,5.2,4.4,8.6,6,10.3c0.2,0.2,0.7,0.6,1.3,1.2
		c0.7,0.6,1.2,1.1,1.5,1.6c0.3,0.4,0.5,0.9,0.5,1.4c0,0.5-0.3,0.9-0.9,1.2c-0.6,0.3-1.3,0.5-2.1,0.5c-1.6,0-3.3-1.1-5.1-3.3
		c-1.8-2.2-3.3-4.8-4.7-8c-2.3-5.4-4-10.1-5.1-14.1c-1.2,0.8-2,1.8-2.7,3c-0.6,1.3-0.9,2.1-0.9,2.6v18c0,1-0.8,1.5-2.3,1.5
		c-1,0-1.9-0.2-2.5-0.6c-0.6-0.4-0.9-0.9-0.9-1.5v-20c0-2.4,0.3-5.9,1-10.7c0.7-4.7,1-8.3,1-10.6c0.6-0.8,1.5-1.3,2.6-1.3
		C135.3,346.2,136.4,346.9,136.4,348.4z"/>
	<path d="M202.8,379.2l-0.6,1.3c0,0.5,0.3,1.8,0.9,3.9c0.6,2.1,0.9,3.4,0.9,4.1v0.1c0,1-0.5,1.6-1.6,1.9c-1.5,0-2.6-0.2-3.4-0.5
		c-0.8-0.3-1.2-1.1-1.2-2.3c0-1.2-0.5-3.7-1.5-7.5l-3.2-0.2h-3.5c-0.8-0.2-2.2-0.3-4.1-0.3c0,0,0,0.3-0.1,0.9
		c-0.1,0.5-0.2,0.9-0.2,1.3s-0.1,0.8-0.3,1.4c-0.1,0.6-0.2,1.2-0.4,1.6c-0.1,0.4-0.3,1-0.5,1.5s-0.4,1.1-0.7,1.5
		c-0.3,0.4-0.5,0.8-0.8,1.1c-0.6,0.8-1.4,1.1-2.2,1.1c-0.9,0-1.7-0.2-2.4-0.5c-0.7-0.3-1-0.8-1-1.3c1.8-4.4,3.4-9.1,4.7-14
		c1.3-4.9,2.1-7.8,2.3-8.7c0.3-0.9,0.8-2.7,1.8-5.3c0.9-2.6,1.5-4.3,1.7-5.2s0.4-2,0.5-3.4c0.3-3,0.9-5,1.9-5.9h3.5
		c2.4,0,3.6,0.5,3.6,1.4c0,8.5,1.3,16.9,3.9,25.2c0.1,0.5,0.4,1.2,0.8,2.1C202.4,376.5,202.8,378,202.8,379.2z M195.7,377.7
		c-0.2-0.6-0.3-1.7-0.3-3.1c0-1.4-0.1-3.2-0.4-5.2c-0.3-2-0.7-4.4-1.2-7.1c-0.5-2.7-0.9-4.7-1.1-5.9c-0.4,1.2-1.2,3.3-2.4,6.2
		c-2.4,6.1-3.6,10.7-3.7,14C187.7,377.2,190.7,377.5,195.7,377.7z"/>
	<path d="M218.7,363.8l0.6,17v7.5c0,0.6-0.2,1.1-0.7,1.5s-1.1,0.6-2,0.6c-2.3,0-3.4-1.3-3.4-4l-0.2-23.2l0.6-12.3
		c0-3,1.3-4.4,3.8-4.4c1.5,0,2.6,0.7,3.3,2.2c0.9,2.8,2.6,6.9,5,12.2c2.4,5.3,4,9.3,4.9,12.1c0.6,1.4,1.5,3.3,2.5,6s1.8,4.6,2.4,6
		c0.3-9.5,0.4-21.1,0.4-34.6l-0.2-1.8c0-0.6,0.2-1.1,0.5-1.4s1-0.5,1.8-0.5c0.8,0,1.5,0.1,2.1,0.4c1.1,0.5,1.6,1.2,1.6,2.2
		c0,6-0.3,13.8-0.8,23.2c-0.5,9.5-1.4,15.4-2.4,17.7c-0.1,0-0.4,0.1-0.9,0.2c-0.4,0.1-0.8,0.2-1,0.2c-1.9,0.3-3.1,0.2-3.7-0.2
		s-0.9-0.9-1.1-1.5c-0.2-0.6-0.5-1.3-0.8-1.9c-0.3-0.6-1.4-3.5-3.2-8.8c-5-13.8-8-21.9-9.2-24.1V363.8z"/>
	<path d="M275,363.8l-0.2,3.3v3.6c0,4.4-0.3,7.3-0.9,8.8s-1.2,2.8-1.9,3.8c-0.6,1-1.4,1.9-2.3,2.6c-2,1.7-4.6,3.2-7.7,4.2H255
		c-1.8,0-2.6-2.9-2.6-8.6l0.3-20.7c0-3.8-0.1-7.4-0.4-10.8c-0.6-0.4-0.9-0.9-0.9-1.5s0.4-1.1,1.2-1.5c0.8-0.4,1.7-0.7,2.8-0.7
		c1.1,0,2,0.4,2.8,1.2c0.5,0.1,1.3,0.2,2.3,0.4c1,0.1,1.7,0.2,2.2,0.4c3.9,1.1,6.9,3.1,9.1,6C273.9,357.1,275,360.3,275,363.8z
		 M258,356.2l1.2,29.1v1.6h1.9c3.6-2.8,6-5.3,7-7.7c1-2.2,1.5-5.2,1.5-9.1c0-13.2-3.6-20.2-10.8-20.8
		C258.3,351.1,258,353.4,258,356.2z"/>
	<path d="M300.1,387.9l0.5-23.5c0-10.4-0.9-18.3-2.6-23.5c1.1-1,2.4-1.5,4-1.5c2.6,0,4.9,0.4,7,1.1c2.1,0.7,3.8,1.7,5.2,2.9
		c2.7,2.5,4.1,5.4,4.1,8.6s-1.1,6.1-3.3,8.7c-2.2,2.6-5.4,4.7-9.7,6.1l0.8,20.5c0,1.8-1.2,2.7-3.5,2.7c-0.8,0-1.5-0.2-1.9-0.7
		S300.1,388.5,300.1,387.9z M304.9,363.7c5.2-3.2,7.9-6.9,7.9-11.2v0c0-3.2-0.9-5.4-2.7-6.6c-1.2-0.8-3.2-1.8-6-3.1
		c0,2.3,0.2,5.8,0.5,10.4C304.8,357.9,304.9,361.4,304.9,363.7z"/>
	<path d="M351.6,379.2l-0.6,1.3c0,0.5,0.3,1.8,0.9,3.9c0.6,2.1,0.9,3.4,0.9,4.1v0.1c0,1-0.5,1.6-1.6,1.9c-1.5,0-2.6-0.2-3.4-0.5
		c-0.8-0.3-1.2-1.1-1.2-2.3c0-1.2-0.5-3.7-1.5-7.5l-3.2-0.2h-3.5c-0.8-0.2-2.2-0.3-4.1-0.3c0,0,0,0.3-0.1,0.9
		c-0.1,0.5-0.2,0.9-0.2,1.3s-0.1,0.8-0.3,1.4c-0.1,0.6-0.2,1.2-0.4,1.6c-0.1,0.4-0.3,1-0.5,1.5s-0.4,1.1-0.7,1.5
		c-0.3,0.4-0.5,0.8-0.8,1.1c-0.6,0.8-1.4,1.1-2.2,1.1c-0.9,0-1.7-0.2-2.4-0.5c-0.7-0.3-1-0.8-1-1.3c1.8-4.4,3.4-9.1,4.7-14
		c1.3-4.9,2.1-7.8,2.3-8.7c0.3-0.9,0.8-2.7,1.8-5.3c0.9-2.6,1.5-4.3,1.7-5.2s0.4-2,0.5-3.4c0.3-3,0.9-5,1.9-5.9h3.5
		c2.4,0,3.6,0.5,3.6,1.4c0,8.5,1.3,16.9,3.9,25.2c0.1,0.5,0.4,1.2,0.8,2.1C351.1,376.5,351.6,378,351.6,379.2z M344.4,377.7
		c-0.2-0.6-0.3-1.7-0.3-3.1c0-1.4-0.1-3.2-0.4-5.2c-0.3-2-0.7-4.4-1.2-7.1c-0.5-2.7-0.9-4.7-1.1-5.9c-0.4,1.2-1.2,3.3-2.4,6.2
		c-2.4,6.1-3.6,10.7-3.7,14C336.4,377.2,339.5,377.5,344.4,377.7z"/>
	<path d="M374.9,389.1l-3.9,0l-4.5,0.1c-1.9,0-3.2-0.4-3.9-1.2c0-0.6,0.1-1.1,0.4-1.5c0.3-0.4,0.8-0.5,1.6-0.5h2.9l0.2-0.9l-0.7-14
		l0.6-14.7c0-2.5-0.2-4.8-0.5-7c-1.5,0-2.8,0-4,0c-1.2,0-2.1-0.1-2.7-0.4c-0.6-0.2-0.9-0.7-0.9-1.4c0-1,1.9-1.5,5.6-1.5h0.4
		c8.9,0,13.4,0.8,13.4,2.2c0,0.2-0.2,0.6-0.6,1.2h-5.3c0.3,1.6,0.4,3.5,0.4,5.7l-0.6,12.6l0.8,14v2c0,0.4-0.1,1-0.4,1.8h4.4
		c2.8,0,4.3,0.5,4.3,1.6c0,0.5-0.2,0.9-0.7,1.3c-0.5,0.3-1,0.5-1.7,0.5L374.9,389.1z"/>
	<path d="M395.4,363.8l0.6,17v7.5c0,0.6-0.2,1.1-0.7,1.5s-1.1,0.6-2,0.6c-2.3,0-3.4-1.3-3.4-4l-0.2-23.2l0.6-12.3
		c0-3,1.3-4.4,3.8-4.4c1.5,0,2.6,0.7,3.3,2.2c0.9,2.8,2.6,6.9,5,12.2c2.4,5.3,4,9.3,4.9,12.1c0.6,1.4,1.5,3.3,2.5,6s1.8,4.6,2.4,6
		c0.3-9.5,0.4-21.1,0.4-34.6l-0.2-1.8c0-0.6,0.2-1.1,0.5-1.4s1-0.5,1.8-0.5c0.8,0,1.5,0.1,2.1,0.4c1.1,0.5,1.6,1.2,1.6,2.2
		c0,6-0.3,13.8-0.8,23.2c-0.5,9.5-1.4,15.4-2.4,17.7c-0.1,0-0.4,0.1-0.9,0.2c-0.4,0.1-0.8,0.2-1,0.2c-1.9,0.3-3.1,0.2-3.7-0.2
		s-0.9-0.9-1.1-1.5c-0.2-0.6-0.5-1.3-0.8-1.9c-0.3-0.6-1.4-3.5-3.2-8.8c-5-13.8-8-21.9-9.2-24.1V363.8z"/>
	<path d="M437.9,383.7l0.2-2.3c-0.3-0.6-0.8-5.5-1.7-14.9c-0.8-9.4-1.3-15.1-1.4-17.1c-4-0.1-6.5-0.3-7.4-0.7
		c-0.9-0.4-1.4-0.8-1.4-1.2c0-0.4,0.4-0.8,1.1-1c0.7-0.3,1.5-0.4,2.2-0.4l14.1,0.6l1.7,0c2.2,0,3.3,0.5,3.3,1.6c0,0.5-0.4,1-1.1,1.3
		c-0.7,0.3-1.5,0.5-2.4,0.5l-4.8-0.5l-0.2,0.7c0,4.2,0.6,10.4,1.7,18.7c1.2,8.3,1.7,14.5,1.7,18.7c0,0.5-0.3,1-0.9,1.4
		c-0.6,0.4-1.4,0.6-2.2,0.6h-2.3L437.9,383.7z"/>
	<path d="M485.8,386.3c0,2.1-0.5,3.5-1.4,4c-0.5,0.3-1.2,0.4-2.2,0.4c-1,0-1.8-0.5-2.5-1.4c0.8-1,1.2-4.7,1.2-11.2
		c0-1.2-0.1-2.9-0.4-5.2c-0.3-2.2-0.4-3.7-0.5-4.5c-1.4-1.5-3.4-4.9-6.3-10.2c-2.8-5.3-4.2-8.6-4.2-9.9V348l2.3-1.1
		c2.1,0,4.7,3.4,7.6,10.2c1.3,3,1.9,4.4,1.9,4.5c0.3-0.5,0.8-2.1,1.6-4.9c2.1-7.1,4.2-10.7,6.5-10.7c0.6,0,1.2,0.1,1.8,0.4
		c0.5,0.3,0.8,0.6,0.8,1c0,2.7-1,5.9-3.1,9.5c-2.1,3.6-3.1,6.8-3.1,9.6V386.3z"/>
	<path d="M524.9,372.1c0,12.6-4.1,18.9-12.2,18.9c-7.5,0-11.7-6-12.6-17.9c-0.1-1.1-0.1-2.3-0.1-3.4l-0.1-4v-1.3
		c0-9.3,2.1-15,6.5-17.2c1-0.5,2.2-0.8,3.5-0.9c1,0.2,2.2,0.4,3.6,0.6c1.4,0.2,2.5,0.4,3.1,0.6c1.3,0.4,2.6,1.3,4.1,2.8
		c1.5,1.5,2.5,3.6,3.2,6.1c0.7,2.6,1,5.1,1,7.7V372.1z M505.6,356.6l0.2,3.9l-0.1,6.3c0,0.5,0,1.2,0.1,1.9c0,0.7,0.1,1.7,0.1,2.9
		c0.1,1.2,0.2,2.4,0.3,3.5s0.3,2.4,0.5,3.7c0.2,1.3,0.5,2.5,0.8,3.6c0.3,1.1,0.7,2.1,1.1,3c0.9,2,2.1,2.9,3.6,2.9
		c2,0,3.5-1.2,4.6-3.6c1.6-3.5,2.3-7.9,2.3-13.1l0.2-6.8c0-4.8-0.3-8-1-9.6s-1.3-2.9-1.9-3.7c-1.2-1.7-2.9-2.5-5.2-2.5
		c-0.1,0-0.1,0-0.2,0C507.5,349,505.6,351.5,505.6,356.6z"/>
	<path d="M559.5,360.4l0.1,1.1c-0.5,1.5-0.8,4.2-1,8s-0.4,6.8-0.9,9.1c-0.4,2.3-1,4.3-1.8,6.1c-0.7,1.7-1.9,3.2-3.6,4.4
		c-1.6,1.2-3.5,1.7-5.5,1.7c-2,0-3.7-0.2-5-0.7c-1.3-0.5-2.3-1.1-3.1-2s-1.5-1.8-2-2.8c-0.5-1-0.9-2.1-1.2-3.5
		c-0.5-2.3-0.7-4.7-0.7-7.3l0.6-17.4c0-3.8-0.4-6.9-1.3-9.4v-1.6c1.7,0,3,0.4,3.9,1.2c1,0.8,1.4,1.7,1.4,2.7v31.9
		c0,1.7,0.7,3.2,2,4.6c1.3,1.4,3.3,2.1,5.9,2.1c2.9,0,4.9-5.4,5.9-16.3v-0.3l0.1-0.4c0.9-9.9,1.3-17.9,1.3-24.1l-0.1-1.1
		c0-0.5,0.2-0.9,0.6-1.2c0.4-0.3,1.1-0.4,2.1-0.4c1,0,1.8,0.2,2.3,0.5c0.5,0.4,0.8,0.7,0.9,1.1c0.1,0.4,0.1,0.9,0.1,1.5l-0.7,6.6
		L559.5,360.4z"/>
	<path d="M575.6,370.3c-0.5,1.2-0.7,2.4-0.7,3.4c0,1,0.2,3.3,0.6,6.7c0.4,3.4,0.6,5.6,0.6,6.6c0,1-0.3,1.7-0.8,2.3
		c-0.6,0.5-1.2,0.8-1.9,0.8c-1,0-1.7-0.4-1.9-1.3c0.1-1.6,0.1-3.6,0.1-6s-0.3-7.6-0.9-15.6c-0.6-8-0.9-14-0.9-18
		c0-2.1,1.2-3.1,3.5-3.1c3.6,0,6.7,0.6,9.1,1.8c2.5,1.2,3.7,2.9,3.7,5.1c0,3-0.4,5.3-1.1,7c-0.7,1.7-2.2,3.8-4.2,6.3
		c0.4,1.1,1,3.2,2,6.3c2,6.8,4.2,11.7,6.8,14.8c0.7,0.9,1.1,1.5,1.1,2c0,0.5-0.2,0.9-0.6,1.2c-0.4,0.3-1,0.5-1.7,0.5
		c-2.3,0-4.4-2.4-6.2-7.2c-0.8-2.1-1.5-4.2-2.2-6.3c-1.8-5.8-3-9.1-3.5-9.8C576.3,368.2,576.1,369.1,575.6,370.3z M575.5,348.4
		l-0.4,0.9c0,1.8,0.1,4.4,0.2,7.8c0.1,3.4,0.2,5.9,0.2,7.4c1.6-0.5,2.9-1.9,3.9-4.2c1-2.3,1.5-4,1.5-5.2c0-1.2-0.1-2.1-0.2-2.7
		c-0.1-0.6-0.3-1.2-0.7-1.9C579.5,349.1,578,348.4,575.5,348.4z"/>
	<path d="M637.4,372.1c0,12.6-4.1,18.9-12.2,18.9c-7.5,0-11.7-6-12.6-17.9c-0.1-1.1-0.1-2.3-0.1-3.4l-0.1-4v-1.3
		c0-9.3,2.1-15,6.5-17.2c1-0.5,2.2-0.8,3.5-0.9c1,0.2,2.2,0.4,3.6,0.6c1.4,0.2,2.5,0.4,3.1,0.6c1.3,0.4,2.6,1.3,4.1,2.8
		c1.5,1.5,2.5,3.6,3.2,6.1s1,5.1,1,7.7V372.1z M618.1,356.6l0.2,3.9l-0.1,6.3c0,0.5,0,1.2,0.1,1.9c0,0.7,0.1,1.7,0.1,2.9
		c0.1,1.2,0.2,2.4,0.3,3.5s0.3,2.4,0.5,3.7s0.5,2.5,0.8,3.6c0.3,1.1,0.7,2.1,1.1,3c0.9,2,2.1,2.9,3.6,2.9c2,0,3.5-1.2,4.6-3.6
		c1.6-3.5,2.3-7.9,2.3-13.1l0.2-6.8c0-4.8-0.3-8-1-9.6s-1.3-2.9-1.9-3.7c-1.2-1.7-2.9-2.5-5.2-2.5c-0.1,0-0.1,0-0.2,0
		C619.9,349,618.1,351.5,618.1,356.6z"/>
	<path d="M679.8,351.4c-0.5,2.1-0.8,3.7-0.9,4.7v4.8c0,9-0.9,16.2-2.7,21.5c-0.3,1-0.5,2-0.5,2.8c0,4.5-1.3,6.7-3.8,6.7
		c-1.3,0-2.1-0.6-2.4-1.7c-0.1-0.4-0.2-1.1-0.2-2.1s-0.4-3-1.3-6.1c-0.3-1.3-0.6-2.6-0.9-4c-0.2-1.4-0.6-4.2-1.1-8.6
		c-0.5-4.4-1-7.7-1.5-10c-0.2,1.5-0.3,3.2-0.3,5.2s-0.7,5.7-2,11c-0.6,2.6-1,4.2-1.1,4.8c-0.1,0.7-0.3,1.6-0.4,3
		c-0.2,1.3-0.6,2.9-1.2,4.7c-0.7,2-1.8,3-3.3,3c-2.1,0-3.5-1.9-4.3-5.6c-0.3-1.7-0.6-3.3-0.8-4.9c-0.2-1.6-0.3-3.2-0.4-4.7
		c-0.1-1.6-0.2-2.7-0.3-3.3c-0.1-0.6-0.5-2.1-1.1-4.6s-0.9-4.2-1.1-5.2c-0.1-1-0.2-2.3-0.3-3.9s-0.2-3.3-0.4-5.2
		c-0.2-1.9-0.9-3.8-2.2-5.6c0.6-0.8,1.6-1.2,3-1.2c2.2,0,3.4,1.6,3.4,4.8c0,3.2,0.7,8,2.2,14.6c1.5,6.5,2.3,11.3,2.4,14.3
		c0.1-0.4,0.3-1.4,0.7-3s0.6-2.6,0.8-3.2s0.3-1.6,0.6-2.9s0.5-2.4,0.6-3.3c0.1-0.8,0.2-1.8,0.3-2.9c0.1-1.1,0.2-2.3,0.2-3.5
		s0.2-3.1,0.6-5.8c0.4-2.7,0.6-4.4,0.7-5.2h2.8c0.8,0,1.4,0.1,2,0.4c0.5,0.3,0.8,0.7,0.8,1.2v0.5c1.7,4.2,3.1,10.3,4.2,18.4
		c0.5,3.7,0.9,6.5,1.3,8.5c1.2-6.1,1.7-13.4,1.7-21.8c0-1.1,0.3-2.8,0.8-5c0.5-2.2,0.8-3.8,0.8-5c-0.2-0.4-0.4-0.8-0.4-1.1
		c0-1.1,1-1.6,2.9-1.6c1.9,0,2.9,0.5,2.9,1.5C680.6,347.9,680.3,349.3,679.8,351.4z"/>
	<path d="M695.9,363.8l0.6,17v7.5c0,0.6-0.2,1.1-0.7,1.5c-0.5,0.4-1.1,0.6-2,0.6c-2.3,0-3.4-1.3-3.4-4l-0.2-23.2l0.6-12.3
		c0-3,1.3-4.4,3.8-4.4c1.5,0,2.6,0.7,3.3,2.2c0.9,2.8,2.6,6.9,5,12.2c2.4,5.3,4,9.3,4.8,12.1c0.6,1.4,1.5,3.3,2.5,6s1.8,4.6,2.4,6
		c0.3-9.5,0.4-21.1,0.4-34.6l-0.2-1.8c0-0.6,0.2-1.1,0.5-1.4s1-0.5,1.8-0.5c0.8,0,1.5,0.1,2.1,0.4c1.1,0.5,1.6,1.2,1.6,2.2
		c0,6-0.3,13.8-0.8,23.2c-0.5,9.5-1.4,15.4-2.4,17.7c-0.1,0-0.4,0.1-0.9,0.2c-0.4,0.1-0.8,0.2-1,0.2c-1.9,0.3-3.1,0.2-3.7-0.2
		s-0.9-0.9-1.1-1.5c-0.2-0.6-0.5-1.3-0.8-1.9c-0.3-0.6-1.4-3.5-3.2-8.8c-5-13.8-8-21.9-9.2-24.1V363.8z"/>
</g>
<g class="st0">
	<path d="M756.5,348.4l-1.1,5.8c0,2.8,0.6,7.9,1.8,15.4c1.2,7.5,2.3,11.7,3.4,12.7c2,1.8,5,2.7,9,2.7c4,0,7.1-0.8,9.2-2.4
		c1.5,0,2.9-0.1,4.1-0.4v1.1c0,1.7-0.8,3-2.3,4.1c-2.5,1.8-6.5,2.7-12,2.7c-2.9,0-5.8-0.6-8.7-1.9c-2.8-1.3-5-2.9-6.5-4.9
		c-1.5-2-2.7-7.1-3.5-15.4s-1.3-14.6-1.3-19.1c0-4.5,0.3-7.7,0.9-9.6c-0.3-0.9-0.4-1.8-0.4-2.6c0-3.4,2-6.1,6-8.1c4-2,8.9-3,14.8-3
		c2.1,0,4.1,0.4,6.1,1.1c2,0.7,3,1.7,3,2.9c0,0.6-0.4,1-1.1,1.4c-0.7,0.3-1.7,0.5-3,0.5c-1.3,0-2.3-0.3-2.9-1v0.2h-2v-0.3
		c-6.7,0-10.9,1.8-12.6,5.4c-0.9,1.8-1.3,4.1-1.3,7L756.5,348.4z"/>
	<path d="M805.6,385.7l5.2-0.2c3.3,0,5,0.7,5,2c0,0.8-0.6,1.4-1.7,1.8c-1.1,0.4-2.4,0.6-3.9,0.6h-12.3c-1.1,0-2.1-0.2-2.8-0.7
		c-0.8-0.5-1.2-1.1-1.3-1.9c-0.1-0.8,0-1.7,0.3-2.8s0.4-2,0.4-2.7l-0.6-10.6l0.9-24.2l-0.7-7c0-3.9,1.8-5.9,5.5-5.9
		c1,0,2,0.2,2.9,0.6c0.3,0,1.2,0.1,2.5,0.1c1.3,0.1,2.4,0.2,3.4,0.3c1,0.1,2,0.3,3.2,0.4c2.5,0.4,3.7,1.2,3.7,2.2
		c0,1.1-1.3,2-3.8,2.6c-4-0.9-7.3-1.4-9.9-1.6c0.1,1.2,0.2,2.4,0.2,3.6l-0.6,11.9c0,0.1,0.1,0.5,0.4,1.3l4.7-0.1
		c4.2,0,6.3,0.8,6.3,2.3c0,0.8-0.4,1.5-1.1,2.1c-0.7,0.6-1.8,0.9-3.2,0.9c-1.4,0-2.6-0.2-3.6-0.7H801c0.3,2.1,0.4,4.1,0.4,6l-0.6,15
		C800.8,384.1,802.4,385.7,805.6,385.7z"/>
	<path d="M832.9,364.3c-0.6,1.5-0.9,3-0.9,4.3c0,1.3,0.3,4.1,0.8,8.4c0.5,4.3,0.8,7,0.8,8.3s-0.3,2.2-1.1,2.8c-0.7,0.6-1.5,1-2.4,1
		c-1.3,0-2.1-0.6-2.4-1.7c0.1-2,0.1-4.6,0.1-7.5s-0.4-9.5-1.1-19.6c-0.7-10.1-1.1-17.6-1.1-22.6c0-2.6,1.4-3.9,4.3-3.9
		c4.5,0,8.4,0.8,11.5,2.3s4.7,3.7,4.7,6.5c0,3.8-0.5,6.7-1.4,8.8c-0.9,2.1-2.7,4.7-5.3,7.9c0.5,1.3,1.3,4,2.5,7.9
		c2.5,8.6,5.3,14.7,8.5,18.5c0.9,1.1,1.3,1.9,1.3,2.5s-0.3,1.1-0.8,1.5c-0.5,0.4-1.2,0.6-2.1,0.6c-2.8,0-5.5-3-7.8-9
		c-1-2.6-1.9-5.3-2.7-7.9c-2.3-7.3-3.8-11.4-4.4-12.3C833.8,361.6,833.5,362.8,832.9,364.3z M832.7,336.7l-0.4,1.2
		c0,2.3,0.1,5.5,0.3,9.8s0.3,7.4,0.3,9.3c2-0.7,3.7-2.4,4.9-5.3c1.3-2.8,1.9-5,1.9-6.5s-0.1-2.6-0.2-3.3c-0.1-0.7-0.4-1.5-0.8-2.4
		C837.7,337.7,835.8,336.8,832.7,336.7z"/>
	<path d="M892.1,375.4l-0.7,1.7c0,0.7,0.4,2.3,1.1,4.9c0.8,2.6,1.1,4.3,1.1,5.1v0.1c0,1.2-0.7,2-2,2.3c-1.8,0-3.3-0.2-4.3-0.6
		s-1.5-1.3-1.5-2.8s-0.6-4.7-1.9-9.4l-4-0.2h-4.3c-1-0.3-2.7-0.4-5.2-0.4c0,0.1-0.1,0.4-0.2,1.1c-0.1,0.7-0.2,1.2-0.3,1.6
		s-0.2,1-0.3,1.8c-0.1,0.8-0.3,1.5-0.5,2c-0.2,0.6-0.4,1.2-0.6,1.9c-0.3,0.7-0.5,1.4-0.9,1.9c-0.3,0.5-0.7,1-1.1,1.4
		c-0.8,0.9-1.7,1.4-2.8,1.4c-1.1,0-2.1-0.2-3-0.6c-0.9-0.4-1.3-0.9-1.3-1.6c2.3-5.6,4.3-11.4,5.9-17.5c1.6-6.1,2.6-9.7,2.9-10.9
		c0.3-1.1,1.1-3.4,2.2-6.6c1.2-3.3,1.9-5.5,2.1-6.6c0.2-1.1,0.5-2.5,0.7-4.3c0.4-3.8,1.2-6.3,2.4-7.4h4.4c3,0,4.5,0.6,4.5,1.7
		c0,10.6,1.6,21.2,4.9,31.7c0.2,0.6,0.5,1.5,1,2.6C891.5,372.1,892.1,374,892.1,375.4z M883.1,373.6c-0.3-0.8-0.4-2.1-0.4-3.9
		c0-1.8-0.2-4-0.5-6.6c-0.4-2.6-0.9-5.6-1.6-8.9c-0.7-3.4-1.1-5.8-1.4-7.3c-0.5,1.6-1.5,4.2-3,7.8c-3,7.6-4.6,13.5-4.7,17.6
		C873.1,372.9,876.9,373.3,883.1,373.6z"/>
	<path d="M911.8,385.2l0.2,2.5c0,0.9-0.3,1.6-0.9,2c-0.6,0.5-1.5,0.7-2.8,0.7c-1.3,0-2.3-0.2-3.1-0.6c-0.8-0.4-1.2-1-1.1-1.7
		c0-0.7,0.5-7.6,1.5-20.7s1.4-22.9,1.4-29.5c0.1-1.4,0.5-2.3,1-2.8c0.6-0.5,1.3-0.7,2.4-0.8c1-0.1,1.7,0,2,0.1
		c0.3,0.1,0.6,0.3,0.9,0.5c0.3,0.3,0.5,0.5,0.7,0.7c0.2,0.2,0.4,0.5,0.5,1s0.3,0.8,0.4,1s0.2,0.6,0.3,1.1c0.1,0.5,0.3,1,0.4,1.5
		c0.1,0.5,0.8,2.4,1.9,5.7c1.1,3.4,2.4,7.7,3.8,13c1.4,5.3,3,12,4.8,20.1c2.7-9.1,5-17.7,7-25.8c2-8.1,3-12.5,3.1-13
		s0.2-0.9,0.3-1.1c0.1-0.2,0.2-0.6,0.4-1.1c0.2-0.5,0.3-0.9,0.5-1.1c0.1-0.3,0.4-0.6,0.7-0.9c0.3-0.4,0.6-0.6,1-0.8
		c0.8-0.5,1.8-0.7,2.9-0.7c1.1,0,2.2,0.2,3.2,0.6s1.5,1,1.5,1.7c0,12.7,0.2,21.4,0.5,26.3c0.4,4.9,0.5,7.8,0.5,8.8l-0.1,13.3
		c0.4,0.6,0.6,1.2,0.6,1.9s-0.3,1.4-1,2.1c-0.7,0.8-1.6,1.1-2.7,1.1c-2.7,0-4.1-1.7-4.1-5.2l0.2-7.6c0-5.4-0.1-10.2-0.3-14.4
		c0.1-2.5,0.2-9,0.2-19.6c-1.3,5.2-3.1,12.1-5.5,20.8c-2.3,8.7-3.6,13.3-3.7,13.8c-0.1,0.5-0.3,1-0.4,1.5c-0.1,0.5-0.2,0.9-0.3,1.3
		c-0.1,0.4-0.2,0.8-0.5,1.2c-0.2,0.5-0.5,0.8-0.8,1.1c-0.7,0.7-1.7,1.1-3.1,1.1c-2.6,0-4.1-1.2-4.6-3.6c-0.7-3.4-2.1-9.3-4.2-17.8
		c-2.1-8.5-3.7-14.2-4.7-17.1C912.1,364.6,911.8,377.8,911.8,385.2z"/>
	<path d="M977.3,387.8l-4.9,0l-5.7,0.2c-2.4,0-4-0.5-4.8-1.5c0-0.8,0.2-1.4,0.5-1.9c0.3-0.4,1-0.7,2-0.7h3.7l0.3-1.1l-0.9-17.6
		l0.7-18.4c0-3.1-0.2-6-0.6-8.8c-1.8,0-3.5,0-5.1,0c-1.6,0-2.7-0.2-3.4-0.5c-0.7-0.3-1.1-0.9-1.1-1.8c0-1.3,2.4-1.9,7.1-1.9h0.4
		c11.2,0,16.8,0.9,16.8,2.8c0,0.3-0.3,0.8-0.8,1.5h-6.7c0.3,2,0.5,4.4,0.5,7.1l-0.7,15.8l1,17.6v2.5c0,0.5-0.1,1.2-0.4,2.2h5.5
		c3.6,0,5.4,0.7,5.4,2.1c0,0.6-0.3,1.1-0.9,1.6c-0.6,0.4-1.3,0.6-2.1,0.6L977.3,387.8z"/>
	<path d="M1017.6,384.8c2.6,0,4,0.6,4,1.8c0,2.2-2.4,3.3-7.3,3.3c-2,0-4.1-0.2-6.2-0.5c-2.1-0.4-3.7-0.8-4.8-1.2
		c-5.8-2.4-8.7-8.8-8.7-19.4l-0.1-4.8c0-15.9,3.1-25.2,9.2-28.1c3.1-1.5,7.5-2.2,13.1-2.2c0.9,0,1.8,0.2,2.6,0.6
		c0.8,0.4,1.2,0.9,1.2,1.5v0.3c-0.8,1.3-2.9,1.9-6.3,1.9l-2.4-0.1c-1.4,0-2.7,0.5-3.9,1.5c-1.1,1-2,2.2-2.6,3.6
		c-0.6,1.4-1.1,3-1.5,4.7c-0.6,2.7-0.9,5.3-0.9,7.6v0.4l-0.8,16c0,3.4,0.3,5.7,0.9,7s1.2,2.3,1.8,3.1c0.6,0.8,1.3,1.4,2.2,2
		c2,1.2,4.5,1.8,7.5,1.8C1015.8,385.6,1016.7,385.3,1017.6,384.8z"/>
	<path d="M1030.7,385.3l6.9,0.6c1.7,0,3.1-0.5,4.3-1.4c1.2-0.9,2.1-2.1,2.7-3.4c1.1-2.6,1.7-5,1.7-7s-0.5-4-1.6-6
		c-1.1-2-2.4-3.8-3.9-5.6c-1.5-1.7-3.1-3.5-4.7-5.2c-3.7-4.2-5.5-8.3-5.5-12.4c0-2.5,0.7-4.7,2-6.6c2.5-3.6,5.7-5.3,9.8-5.3
		c1.5,0,3,0.3,4.4,0.9c1.4,0.6,2.1,1.3,2.1,2c0,1.3-1.1,1.9-3.2,1.9c-0.9,0-1.8-0.2-2.7-0.5c-2.8,0.1-4.6,2-5.6,5.9
		c-0.2,0.8-0.3,1.8-0.3,2.9s0.4,2.5,1.1,4.1c0.8,1.6,1.7,3.1,2.9,4.4c1.2,1.3,2.4,2.7,3.8,4.2s2.6,3,3.8,4.5c2.7,3.4,4,7.2,4,11.6
		c0,3.4-1.1,6.6-3.3,9.6c-1.1,1.5-2.8,2.7-4.9,3.7c-2.1,1-4.5,1.4-7.3,1.5v0.2c-1.6-0.1-3.1-0.5-4.4-1c-1.3-0.6-2.1-1.3-2.2-2.2
		V385.3z"/>
</g>
<g class="st0">
	<path class="st1" d="M759.1,344.6l-1.1,5.8c0,2.8,0.6,7.9,1.8,15.4c1.2,7.5,2.3,11.7,3.4,12.7c2,1.8,5,2.7,9,2.7
		c4,0,7.1-0.8,9.2-2.4c1.5,0,2.9-0.1,4.1-0.4v1.1c0,1.7-0.8,3-2.3,4.1c-2.5,1.8-6.5,2.7-12,2.7c-2.9,0-5.8-0.6-8.7-1.9
		c-2.8-1.3-5-2.9-6.5-4.9c-1.5-2-2.7-7.1-3.5-15.4c-0.9-8.3-1.3-14.6-1.3-19.1c0-4.5,0.3-7.7,0.9-9.6c-0.3-0.9-0.4-1.8-0.4-2.6
		c0-3.4,2-6.1,6-8.1c4-2,8.9-3,14.8-3c2.1,0,4.1,0.4,6.1,1.1c2,0.7,3,1.7,3,2.9c0,0.6-0.4,1-1.1,1.4c-0.7,0.3-1.7,0.5-3,0.5
		s-2.3-0.3-2.9-1v0.2h-2v-0.3c-6.7,0-10.9,1.8-12.6,5.4c-0.9,1.8-1.3,4.1-1.3,7L759.1,344.6z"/>
	<path class="st1" d="M808.1,381.8l5.2-0.2c3.3,0,5,0.7,5,2c0,0.8-0.6,1.4-1.7,1.8c-1.1,0.4-2.4,0.6-3.9,0.6h-12.3
		c-1.1,0-2.1-0.2-2.8-0.7s-1.2-1.1-1.3-1.9c-0.1-0.8,0-1.7,0.3-2.8c0.2-1.1,0.4-2,0.4-2.7l-0.6-10.6l0.9-24.2l-0.7-7
		c0-3.9,1.8-5.9,5.5-5.9c1,0,2,0.2,2.9,0.6c0.3,0,1.2,0.1,2.5,0.1c1.3,0.1,2.4,0.2,3.4,0.3c1,0.1,2,0.3,3.2,0.4
		c2.5,0.4,3.7,1.2,3.7,2.2c0,1.1-1.3,2-3.8,2.6c-4-0.9-7.3-1.4-9.9-1.6c0.1,1.2,0.2,2.4,0.2,3.6l-0.6,11.9c0,0.1,0.1,0.5,0.4,1.3
		l4.7-0.1c4.2,0,6.3,0.8,6.3,2.3c0,0.8-0.4,1.5-1.1,2.1c-0.7,0.6-1.8,0.9-3.2,0.9s-2.6-0.2-3.6-0.7h-3.3c0.3,2.1,0.4,4.1,0.4,6
		l-0.6,15C803.4,380.3,805,381.8,808.1,381.8z"/>
	<path class="st1" d="M835.4,360.4c-0.6,1.5-0.9,3-0.9,4.3c0,1.3,0.3,4.1,0.8,8.4c0.5,4.3,0.8,7,0.8,8.3c0,1.2-0.4,2.2-1.1,2.8
		s-1.5,1-2.4,1c-1.3,0-2.1-0.6-2.4-1.7c0.1-2,0.1-4.6,0.1-7.5c0-3-0.4-9.5-1.1-19.6c-0.7-10.1-1.1-17.6-1.1-22.6
		c0-2.6,1.4-3.9,4.3-3.9c4.6,0,8.4,0.8,11.5,2.3c3.1,1.5,4.7,3.7,4.7,6.5c0,3.8-0.5,6.7-1.4,8.8c-0.9,2.1-2.7,4.7-5.3,7.9
		c0.5,1.3,1.3,4,2.5,7.9c2.5,8.6,5.3,14.7,8.5,18.5c0.9,1.1,1.3,1.9,1.3,2.5c0,0.6-0.3,1.1-0.8,1.5c-0.5,0.4-1.2,0.6-2.1,0.6
		c-2.8,0-5.5-3-7.8-9c-1-2.6-1.9-5.2-2.7-7.9c-2.3-7.3-3.8-11.4-4.4-12.3C836.3,357.8,836,358.9,835.4,360.4z M835.2,332.9l-0.4,1.2
		c0,2.3,0.1,5.5,0.3,9.8c0.2,4.3,0.3,7.4,0.3,9.3c2-0.7,3.7-2.4,4.9-5.3c1.3-2.8,1.9-5,1.9-6.5c0-1.5-0.1-2.6-0.2-3.3
		c-0.1-0.7-0.4-1.5-0.8-2.4C840.3,333.8,838.3,332.9,835.2,332.9z"/>
	<path class="st1" d="M894.6,371.6l-0.7,1.7c0,0.7,0.4,2.3,1.1,4.9s1.1,4.3,1.1,5.1v0.1c0,1.2-0.7,2-2,2.3c-1.8,0-3.3-0.2-4.3-0.6
		c-1-0.4-1.5-1.3-1.5-2.8c0-1.5-0.6-4.7-1.9-9.4l-4-0.2h-4.3c-1-0.3-2.7-0.4-5.2-0.4c0,0.1-0.1,0.4-0.2,1.1s-0.2,1.2-0.3,1.6
		c-0.1,0.4-0.2,1-0.3,1.8c-0.1,0.8-0.3,1.5-0.5,2c-0.2,0.6-0.4,1.2-0.6,1.9c-0.3,0.7-0.5,1.4-0.9,1.9c-0.3,0.5-0.7,1-1.1,1.4
		c-0.8,0.9-1.7,1.4-2.8,1.4c-1.1,0-2.1-0.2-3-0.6c-0.9-0.4-1.3-0.9-1.3-1.6c2.3-5.6,4.3-11.4,5.9-17.5c1.6-6.1,2.6-9.7,2.9-10.9
		c0.3-1.1,1.1-3.4,2.2-6.6c1.2-3.3,1.9-5.5,2.1-6.6c0.2-1.1,0.5-2.5,0.7-4.3c0.4-3.8,1.2-6.3,2.4-7.4h4.4c3,0,4.5,0.6,4.5,1.7
		c0,10.6,1.6,21.2,4.9,31.7c0.2,0.6,0.5,1.5,1,2.6C894.1,368.3,894.6,370.2,894.6,371.6z M885.7,369.8c-0.3-0.8-0.4-2.1-0.4-3.9
		s-0.2-4-0.5-6.6c-0.4-2.6-0.9-5.6-1.6-8.9c-0.7-3.4-1.1-5.8-1.4-7.4c-0.5,1.6-1.5,4.2-3,7.8c-3,7.6-4.6,13.5-4.7,17.6
		C875.6,369.1,879.5,369.5,885.7,369.8z"/>
	<path class="st1" d="M914.3,381.3l0.2,2.5c0,0.9-0.3,1.6-0.9,2s-1.5,0.7-2.8,0.7c-1.3,0-2.3-0.2-3.1-0.6c-0.8-0.4-1.2-1-1.1-1.7
		c0-0.7,0.5-7.6,1.5-20.7c1-13.1,1.4-22.9,1.4-29.5c0.1-1.4,0.5-2.3,1-2.8c0.6-0.5,1.3-0.7,2.4-0.8c1-0.1,1.7,0,2,0.1
		c0.3,0.1,0.6,0.3,0.9,0.5c0.3,0.3,0.5,0.5,0.7,0.7s0.4,0.5,0.5,1s0.3,0.8,0.4,1c0.1,0.2,0.2,0.6,0.3,1.1s0.3,1,0.4,1.5
		c0.1,0.5,0.8,2.4,1.9,5.7c1.1,3.4,2.4,7.7,3.8,13c1.4,5.3,3,12,4.8,20.1c2.7-9.1,5-17.7,7-25.8c2-8.1,3-12.5,3.1-13
		c0.1-0.5,0.2-0.9,0.3-1.1c0.1-0.2,0.2-0.6,0.4-1.1c0.2-0.5,0.3-0.9,0.5-1.1c0.1-0.3,0.4-0.6,0.7-0.9c0.3-0.4,0.6-0.6,1-0.8
		c0.8-0.5,1.8-0.7,2.9-0.7c1.1,0,2.2,0.2,3.2,0.6s1.5,1,1.5,1.7c0,12.7,0.2,21.4,0.5,26.3s0.5,7.8,0.5,8.8l-0.1,13.3
		c0.4,0.6,0.6,1.2,0.6,1.9c0,0.7-0.3,1.4-1,2.1c-0.7,0.8-1.6,1.1-2.7,1.1c-2.7,0-4.1-1.7-4.1-5.2l0.2-7.6c0-5.4-0.1-10.2-0.3-14.4
		c0.1-2.5,0.2-9,0.2-19.6c-1.3,5.2-3.1,12.1-5.5,20.8s-3.6,13.3-3.7,13.8c-0.1,0.5-0.3,1-0.4,1.5c-0.1,0.5-0.2,0.9-0.3,1.3
		c-0.1,0.3-0.2,0.8-0.5,1.2c-0.2,0.5-0.5,0.8-0.8,1.1c-0.7,0.7-1.7,1.1-3.1,1.1c-2.6,0-4.1-1.2-4.6-3.6c-0.7-3.4-2.1-9.3-4.2-17.8
		c-2.1-8.5-3.7-14.2-4.7-17.1C914.7,360.8,914.3,373.9,914.3,381.3z"/>
	<path class="st1" d="M979.9,384l-4.9,0l-5.7,0.2c-2.4,0-4-0.5-4.8-1.5c0-0.8,0.2-1.4,0.5-1.9c0.3-0.4,1-0.7,2-0.7h3.7l0.3-1.1
		l-0.9-17.6l0.7-18.4c0-3.1-0.2-6-0.6-8.8c-1.8,0-3.5,0-5.1,0c-1.6,0-2.7-0.2-3.4-0.5c-0.7-0.3-1.1-0.9-1.1-1.8
		c0-1.3,2.4-1.9,7.1-1.9h0.4c11.2,0,16.8,0.9,16.8,2.8c0,0.3-0.3,0.8-0.8,1.5h-6.7c0.3,2,0.5,4.4,0.5,7.1l-0.7,15.8l1,17.6v2.5
		c0,0.5-0.1,1.2-0.4,2.2h5.5c3.6,0,5.4,0.7,5.4,2.1c0,0.6-0.3,1.1-0.9,1.6c-0.6,0.4-1.3,0.6-2.1,0.6L979.9,384z"/>
	<path class="st1" d="M1020.2,381c2.6,0,4,0.6,4,1.8c0,2.2-2.4,3.3-7.3,3.3c-2,0-4.1-0.2-6.2-0.5c-2.1-0.4-3.7-0.8-4.8-1.2
		c-5.8-2.4-8.7-8.8-8.7-19.4l-0.1-4.8c0-15.9,3.1-25.2,9.2-28.1c3.1-1.5,7.5-2.2,13.1-2.2c0.9,0,1.8,0.2,2.6,0.6s1.2,0.9,1.2,1.5
		v0.3c-0.8,1.3-2.9,1.9-6.3,1.9l-2.4-0.1c-1.4,0-2.7,0.5-3.9,1.5c-1.1,1-2,2.2-2.6,3.6c-0.6,1.4-1.1,3-1.5,4.7
		c-0.6,2.7-0.9,5.3-0.9,7.6v0.4l-0.8,16c0,3.4,0.3,5.7,0.9,7s1.2,2.3,1.8,3.1c0.6,0.8,1.3,1.4,2.2,2c2,1.2,4.5,1.8,7.5,1.8
		C1018.4,381.7,1019.3,381.5,1020.2,381z"/>
	<path class="st1" d="M1033.3,381.4l6.9,0.6c1.7,0,3.1-0.5,4.3-1.4c1.2-0.9,2.1-2.1,2.7-3.4c1.1-2.6,1.7-5,1.7-7c0-2-0.5-4-1.6-6
		c-1.1-2-2.4-3.8-3.9-5.6c-1.5-1.7-3.1-3.5-4.7-5.2c-3.7-4.2-5.5-8.3-5.5-12.4c0-2.5,0.7-4.7,2-6.6c2.5-3.6,5.7-5.3,9.8-5.3
		c1.5,0,3,0.3,4.4,0.9c1.4,0.6,2.1,1.3,2.1,2c0,1.3-1.1,1.9-3.2,1.9c-0.9,0-1.8-0.2-2.7-0.5c-2.8,0.1-4.6,2-5.6,5.9
		c-0.2,0.8-0.3,1.8-0.3,2.9s0.4,2.5,1.1,4.1c0.8,1.6,1.7,3.1,2.9,4.4c1.2,1.3,2.4,2.7,3.8,4.2s2.6,3,3.8,4.5c2.7,3.4,4,7.2,4,11.6
		c0,3.4-1.1,6.6-3.3,9.6c-1.1,1.5-2.8,2.7-4.9,3.7c-2.1,1-4.5,1.4-7.3,1.5v0.2c-1.6-0.1-3.1-0.5-4.4-1c-1.3-0.6-2.1-1.3-2.2-2.2
		V381.4z"/>
</g>
</svg>
